<?xml version="1.0" encoding="utf-8"?>
<!-- Generator: Adobe Illustrator 15.1.0, SVG Export Plug-In  -->
<!DOCTYPE svg PUBLIC "-//W3C//DTD SVG 1.1//EN" "http://www.w3.org/Graphics/SVG/1.1/DTD/svg11.dtd" [
	<!ENTITY ns_flows "http://ns.adobe.com/Flows/1.0/">
]>
<svg version="1.1"
	 xmlns="http://www.w3.org/2000/svg" xmlns:xlink="http://www.w3.org/1999/xlink" xmlns:a="http://ns.adobe.com/AdobeSVGViewerExtensions/3.0/"
	 x="0px" y="0px" width="374px" height="99px" viewBox="-1.121 0 374 99" enable-background="new -1.121 0 374 99"
	 xml:space="preserve">
<defs>
</defs>
<path fill="#5C7481" d="M162.104,74.272l0.021,0.041c-0.009,0.971-0.264,1.712-0.766,2.226c-0.501,0.512-1.192,0.769-2.071,0.769
	c-0.916,0-1.643-0.323-2.181-0.971s-0.807-1.57-0.807-2.769v-2.755c0-1.189,0.27-2.111,0.81-2.765
	c0.54-0.654,1.266-0.981,2.177-0.981c0.889,0,1.582,0.251,2.078,0.752s0.75,1.249,0.759,2.242l-0.021,0.041h-0.759
	c-0.023-0.788-0.205-1.37-0.547-1.747c-0.342-0.375-0.845-0.563-1.511-0.563c-0.684,0-1.217,0.258-1.6,0.773
	s-0.574,1.26-0.574,2.232v2.779c0,0.991,0.191,1.744,0.574,2.26s0.916,0.773,1.6,0.773c0.666,0,1.169-0.185,1.511-0.554
	s0.524-0.964,0.547-1.784H162.104z"/>
<path fill="#5C7481" d="M163.396,72.926c0-0.957,0.246-1.745,0.738-2.365s1.153-0.93,1.982-0.93s1.491,0.309,1.986,0.926
	c0.495,0.618,0.742,1.407,0.742,2.369v1.087c0,0.971-0.246,1.763-0.738,2.376c-0.492,0.612-1.153,0.919-1.982,0.919
	c-0.834,0-1.497-0.307-1.989-0.919c-0.492-0.613-0.738-1.405-0.738-2.376V72.926z M164.223,74.021c0,0.74,0.164,1.356,0.492,1.85
	s0.797,0.74,1.408,0.74c0.597,0,1.062-0.248,1.395-0.743c0.333-0.496,0.499-1.111,0.499-1.847v-1.089
	c0-0.727-0.167-1.337-0.499-1.833c-0.333-0.495-0.8-0.743-1.401-0.743c-0.606,0-1.073,0.248-1.401,0.743
	c-0.328,0.496-0.492,1.106-0.492,1.833V74.021z"/>
<path fill="#5C7481" d="M171.066,69.768l0.068,1.148c0.196-0.41,0.456-0.727,0.779-0.95s0.704-0.335,1.142-0.335
	c0.447,0,0.823,0.131,1.128,0.393c0.305,0.263,0.529,0.66,0.67,1.193c0.182-0.492,0.441-0.88,0.776-1.162s0.739-0.424,1.213-0.424
	c0.647,0,1.149,0.264,1.507,0.789c0.358,0.527,0.537,1.335,0.537,2.424v4.32h-0.827V72.83c0-0.907-0.123-1.545-0.369-1.914
	s-0.597-0.554-1.053-0.554c-0.479,0-0.852,0.205-1.121,0.615s-0.433,0.925-0.492,1.545v0.191v4.45h-0.82v-4.327
	c0-0.889-0.126-1.522-0.379-1.9s-0.605-0.567-1.056-0.567c-0.433,0-0.78,0.131-1.042,0.393c-0.262,0.263-0.45,0.621-0.564,1.077
	v5.325h-0.82v-7.396H171.066z"/>
<path fill="#5C7481" d="M185.75,74.115c0,0.971-0.208,1.745-0.625,2.324s-0.992,0.868-1.726,0.868c-0.415,0-0.777-0.087-1.087-0.26
	s-0.567-0.424-0.772-0.752v3.712h-0.82v-10.24h0.69l0.089,1.019c0.205-0.369,0.465-0.654,0.779-0.854s0.681-0.301,1.101-0.301
	c0.743,0,1.324,0.315,1.743,0.947c0.419,0.631,0.629,1.473,0.629,2.525V74.115z M184.916,73.109c0-0.809-0.148-1.467-0.444-1.977
	c-0.296-0.509-0.731-0.764-1.306-0.764c-0.406,0-0.742,0.121-1.008,0.363s-0.473,0.557-0.619,0.945v3.733
	c0.15,0.375,0.36,0.668,0.629,0.881c0.269,0.212,0.604,0.318,1.005,0.318c0.574,0,1.008-0.228,1.302-0.682s0.441-1.057,0.441-1.806
	V73.109z"/>
<path fill="#5C7481" d="M190.206,70.506l-0.54-0.041c-0.383,0-0.7,0.129-0.95,0.387c-0.25,0.257-0.435,0.611-0.554,1.063v5.25h-0.82
	v-7.396h0.725l0.096,1.224c0.173-0.429,0.402-0.763,0.687-1.001c0.285-0.24,0.619-0.359,1.001-0.359c0.087,0,0.174,0.008,0.26,0.023
	c0.087,0.017,0.155,0.033,0.205,0.052L190.206,70.506z"/>
<path fill="#5C7481" d="M195.292,77.164c-0.041-0.255-0.071-0.465-0.092-0.629s-0.031-0.33-0.031-0.499
	c-0.223,0.369-0.514,0.673-0.871,0.913c-0.357,0.238-0.756,0.358-1.193,0.358c-0.61,0-1.082-0.19-1.414-0.571
	c-0.333-0.38-0.5-0.894-0.5-1.541c0-0.688,0.242-1.236,0.725-1.645c0.483-0.407,1.138-0.611,1.963-0.611h1.291V72.03
	c0-0.524-0.132-0.935-0.396-1.23c-0.264-0.296-0.633-0.444-1.107-0.444c-0.441,0-0.805,0.142-1.09,0.424s-0.428,0.629-0.428,1.039
	l-0.766-0.007l-0.014-0.041c-0.022-0.556,0.188-1.052,0.633-1.487c0.444-0.435,1.013-0.652,1.705-0.652
	c0.684,0,1.235,0.209,1.654,0.625c0.42,0.418,0.629,1.014,0.629,1.788v3.63c0,0.265,0.012,0.52,0.035,0.766
	c0.022,0.246,0.063,0.487,0.123,0.725H195.292z M193.208,76.569c0.455,0,0.859-0.131,1.213-0.394
	c0.354-0.262,0.603-0.596,0.748-1.001v-1.6h-1.313c-0.561,0-1.008,0.158-1.343,0.476c-0.335,0.316-0.503,0.707-0.503,1.172
	c0,0.396,0.105,0.72,0.314,0.971C192.535,76.444,192.829,76.569,193.208,76.569z"/>
<path fill="#5C7481" d="M196.042,54.82c0,1.507,0.533,2.79,1.596,3.856c1.064,1.063,2.352,1.597,3.857,1.597
	c1.504,0,2.791-0.533,3.855-1.597c1.064-1.066,1.596-2.35,1.596-3.856c0-1.505-0.531-2.791-1.596-3.855s-2.352-1.599-3.855-1.599
	c-1.506,0-2.793,0.534-3.857,1.599C196.575,52.029,196.042,53.315,196.042,54.82L196.042,54.82z M196.042,54.82"/>
<path fill="#5C7481" d="M211.591,6.552c-0.539-0.542-1.18-0.81-1.918-0.81h-51.164c-0.03-0.199-0.094-0.561-0.193-1.088
	c-0.097-0.525-0.177-0.943-0.233-1.256c-0.058-0.312-0.163-0.689-0.319-1.128c-0.159-0.439-0.342-0.789-0.554-1.045
	c-0.214-0.256-0.498-0.475-0.853-0.661c-0.355-0.184-0.758-0.275-1.213-0.275h-10.907c-0.738,0-1.379,0.271-1.917,0.81
	c-0.539,0.538-0.81,1.179-0.81,1.917c0,0.737,0.271,1.377,0.81,1.917c0.542,0.539,1.18,0.81,1.917,0.81h8.691l7.54,35.061
	c-0.056,0.116-0.347,0.654-0.873,1.619c-0.526,0.968-0.945,1.813-1.256,2.535c-0.313,0.726-0.47,1.287-0.47,1.683
	c0,0.74,0.271,1.379,0.81,1.917c0.542,0.539,1.18,0.813,1.917,0.813h43.624c0.738,0,1.376-0.273,1.918-0.813
	c0.539-0.538,0.809-1.177,0.809-1.917c0-0.738-0.27-1.376-0.809-1.915c-0.542-0.542-1.18-0.812-1.918-0.812h-39.194
	c0.682-1.36,1.024-2.271,1.024-2.725c0-0.286-0.036-0.596-0.107-0.937c-0.071-0.343-0.155-0.718-0.255-1.13
	c-0.1-0.413-0.164-0.717-0.192-0.916l44.477-5.198c0.71-0.084,1.293-0.391,1.746-0.912c0.455-0.527,0.683-1.133,0.683-1.814V8.469
	C212.4,7.731,212.13,7.092,211.591,6.552L211.591,6.552z M211.591,6.552"/>
<path fill="#5C7481" d="M157.869,54.82c0,1.507,0.534,2.79,1.599,3.856c1.064,1.063,2.349,1.597,3.855,1.597
	c1.504,0,2.791-0.533,3.855-1.597c1.064-1.066,1.598-2.35,1.598-3.856c0-1.505-0.534-2.791-1.598-3.855
	c-1.065-1.064-2.352-1.599-3.855-1.599c-1.506,0-2.791,0.534-3.855,1.599S157.869,53.315,157.869,54.82L157.869,54.82z
	 M157.869,54.82"/>
<path fill="#5C7481" d="M282.45,78.209v-9.953h2.44c1.034,0,1.88,0.405,2.536,1.217s0.984,1.853,0.984,3.124v1.285
	c0,1.276-0.328,2.316-0.984,3.12c-0.656,0.805-1.502,1.207-2.536,1.207H282.45z M283.271,68.98v8.531h1.62
	c0.802,0,1.452-0.34,1.952-1.021c0.498-0.68,0.748-1.547,0.748-2.602v-1.308c0-1.045-0.25-1.907-0.748-2.585
	c-0.5-0.678-1.15-1.017-1.952-1.017H283.271z"/>
<path fill="#5C7481" d="M289.669,73.971c0-0.957,0.246-1.745,0.738-2.365s1.152-0.93,1.982-0.93s1.491,0.309,1.986,0.926
	c0.494,0.618,0.741,1.407,0.741,2.369v1.087c0,0.971-0.246,1.763-0.738,2.376c-0.492,0.612-1.153,0.919-1.982,0.919
	c-0.834,0-1.497-0.307-1.989-0.919c-0.492-0.613-0.738-1.405-0.738-2.376V73.971z M290.496,75.065c0,0.74,0.164,1.356,0.492,1.85
	s0.798,0.74,1.408,0.74c0.597,0,1.062-0.248,1.395-0.743c0.333-0.496,0.499-1.111,0.499-1.847v-1.089
	c0-0.727-0.166-1.337-0.499-1.833c-0.333-0.495-0.8-0.743-1.401-0.743c-0.605,0-1.073,0.248-1.401,0.743
	c-0.328,0.496-0.492,1.106-0.492,1.833V75.065z"/>
<path fill="#5C7481" d="M298.973,77.655c0.429,0,0.804-0.155,1.128-0.465c0.324-0.311,0.485-0.738,0.485-1.285h0.725l0.021,0.041
	c0.014,0.684-0.217,1.256-0.69,1.716s-1.03,0.69-1.668,0.69c-0.853,0-1.507-0.304-1.966-0.913c-0.457-0.607-0.687-1.391-0.687-2.348
	v-1.148c0-0.952,0.229-1.735,0.687-2.348c0.459-0.613,1.113-0.92,1.966-0.92c0.688,0,1.257,0.24,1.706,0.721
	c0.448,0.481,0.666,1.113,0.652,1.897l-0.014,0.034h-0.731c0-0.588-0.153-1.057-0.462-1.404c-0.307-0.35-0.691-0.523-1.151-0.523
	c-0.638,0-1.103,0.241-1.395,0.723c-0.292,0.482-0.438,1.091-0.438,1.826v1.15c0,0.745,0.146,1.356,0.438,1.836
	C297.87,77.416,298.335,77.655,298.973,77.655z"/>
<path fill="#5C7481" d="M306.793,77.054c-0.196,0.415-0.456,0.735-0.779,0.96c-0.323,0.227-0.702,0.339-1.135,0.339
	c-0.656,0-1.168-0.263-1.534-0.79c-0.367-0.525-0.551-1.345-0.551-2.457v-4.293h0.82v4.307c0,0.897,0.117,1.539,0.352,1.924
	c0.235,0.386,0.576,0.578,1.022,0.578c0.47,0,0.851-0.127,1.146-0.379c0.293-0.254,0.504-0.601,0.632-1.043v-5.387h0.82v7.396
	h-0.738L306.793,77.054z"/>
<path fill="#5C7481" d="M310.143,70.813l0.068,1.148c0.196-0.41,0.456-0.727,0.779-0.95s0.704-0.335,1.142-0.335
	c0.447,0,0.822,0.131,1.128,0.393c0.306,0.263,0.528,0.66,0.67,1.193c0.183-0.492,0.44-0.88,0.776-1.162
	c0.334-0.282,0.738-0.424,1.213-0.424c0.646,0,1.149,0.264,1.508,0.789c0.357,0.527,0.536,1.335,0.536,2.424v4.32h-0.827v-4.334
	c0-0.907-0.123-1.545-0.369-1.914s-0.598-0.554-1.053-0.554c-0.479,0-0.852,0.205-1.121,0.615s-0.434,0.925-0.492,1.545v0.191v4.45
	h-0.82v-4.327c0-0.889-0.127-1.522-0.379-1.9c-0.254-0.378-0.605-0.567-1.057-0.567c-0.434,0-0.78,0.131-1.043,0.393
	c-0.262,0.263-0.449,0.621-0.563,1.077v5.325h-0.82v-7.396H310.143z"/>
<path fill="#5C7481" d="M322.181,78.353c-0.797,0-1.449-0.3-1.955-0.899c-0.506-0.599-0.759-1.363-0.759-2.293v-1.23
	c0-0.935,0.254-1.71,0.763-2.328c0.508-0.617,1.119-0.926,1.835-0.926c0.774,0,1.376,0.276,1.805,0.828s0.643,1.293,0.643,2.224
	v0.811h-4.231v0.613c0,0.718,0.171,1.314,0.513,1.79s0.804,0.714,1.388,0.714c0.406,0,0.756-0.071,1.049-0.214
	c0.295-0.143,0.547-0.345,0.756-0.606l0.335,0.578c-0.224,0.286-0.512,0.514-0.864,0.685
	C323.103,78.268,322.677,78.353,322.181,78.353z M322.064,71.4c-0.515,0-0.938,0.234-1.269,0.704
	c-0.33,0.47-0.502,1.048-0.516,1.736h3.411v-0.314c0-0.61-0.144-1.118-0.431-1.521C322.974,71.602,322.575,71.4,322.064,71.4z"/>
<path fill="#5C7481" d="M326.679,70.813l0.068,1.224c0.195-0.433,0.457-0.768,0.783-1.005c0.325-0.237,0.707-0.355,1.145-0.355
	c0.66,0,1.168,0.245,1.521,0.734c0.353,0.49,0.529,1.253,0.529,2.287v4.512h-0.827v-4.505c0-0.843-0.123-1.436-0.369-1.777
	s-0.604-0.513-1.073-0.513c-0.42,0-0.77,0.138-1.053,0.414c-0.283,0.275-0.494,0.644-0.636,1.104v5.277h-0.82v-7.396H326.679z"/>
<path fill="#5C7481" d="M333.781,68.926v1.887h1.285v0.697h-1.285v4.794c0,0.478,0.068,0.816,0.205,1.017
	c0.137,0.201,0.317,0.301,0.54,0.301c0.109,0,0.217-0.007,0.321-0.021s0.224-0.034,0.355-0.062l0.109,0.629
	c-0.109,0.055-0.252,0.1-0.427,0.133c-0.176,0.035-0.353,0.052-0.53,0.052c-0.438,0-0.78-0.164-1.028-0.491
	c-0.249-0.328-0.373-0.848-0.373-1.558V71.51h-1.025v-0.697h1.025v-1.887H333.781z"/>
<path fill="#5C7481" d="M336.14,73.971c0-0.957,0.246-1.745,0.738-2.365s1.152-0.93,1.982-0.93s1.491,0.309,1.986,0.926
	c0.494,0.618,0.741,1.407,0.741,2.369v1.087c0,0.971-0.246,1.763-0.738,2.376c-0.492,0.612-1.153,0.919-1.982,0.919
	c-0.834,0-1.497-0.307-1.989-0.919c-0.492-0.613-0.738-1.405-0.738-2.376V73.971z M336.967,75.065c0,0.74,0.164,1.356,0.492,1.85
	s0.798,0.74,1.408,0.74c0.597,0,1.062-0.248,1.395-0.743c0.333-0.496,0.499-1.111,0.499-1.847v-1.089
	c0-0.727-0.166-1.337-0.499-1.833c-0.333-0.495-0.8-0.743-1.401-0.743c-0.605,0-1.073,0.248-1.401,0.743
	c-0.328,0.496-0.492,1.106-0.492,1.833V75.065z"/>
<path fill="#5C7481" d="M346.441,78.209V71.51h-1.005v-0.697h1.005v-0.93c0-0.788,0.187-1.399,0.561-1.832s0.892-0.649,1.552-0.649
	c0.256,0,0.513,0.035,0.772,0.106c0.26,0.07,0.528,0.172,0.807,0.304l-0.137,0.718c-0.21-0.109-0.425-0.196-0.646-0.26
	c-0.222-0.063-0.467-0.096-0.735-0.096c-0.46,0-0.801,0.145-1.022,0.434c-0.221,0.29-0.331,0.715-0.331,1.275v0.93h1.36v0.697h-1.36
	v6.699H346.441z M350.563,78.209h-0.827v-7.396h0.827V78.209z"/>
<path fill="#5C7481" d="M356.06,76.446c0-0.339-0.11-0.631-0.332-0.876c-0.221-0.245-0.625-0.502-1.213-0.772
	c-0.752-0.31-1.303-0.626-1.65-0.946c-0.35-0.322-0.523-0.742-0.523-1.262c0-0.528,0.207-0.979,0.622-1.354s0.952-0.561,1.613-0.561
	c0.702,0,1.258,0.207,1.668,0.622s0.606,0.932,0.588,1.552l-0.014,0.041h-0.772c0-0.401-0.133-0.75-0.396-1.046
	s-0.622-0.444-1.073-0.444c-0.46,0-0.812,0.116-1.053,0.349s-0.362,0.504-0.362,0.813c0,0.328,0.096,0.592,0.287,0.789
	c0.191,0.199,0.602,0.448,1.23,0.749c0.738,0.296,1.289,0.618,1.654,0.968c0.365,0.348,0.547,0.789,0.547,1.322
	c0,0.588-0.211,1.062-0.633,1.422c-0.421,0.36-0.979,0.54-1.671,0.54c-0.761,0-1.356-0.215-1.788-0.645
	c-0.43-0.429-0.635-0.939-0.611-1.53l0.014-0.04h0.766c0.027,0.531,0.198,0.917,0.513,1.157s0.684,0.36,1.107,0.36
	c0.46,0,0.823-0.117,1.087-0.351S356.06,76.785,356.06,76.446z"/>
<path fill="#5C7481" d="M360.756,77.655c0.429,0,0.804-0.155,1.128-0.465c0.324-0.311,0.485-0.738,0.485-1.285h0.725l0.021,0.041
	c0.014,0.684-0.217,1.256-0.69,1.716s-1.03,0.69-1.668,0.69c-0.853,0-1.507-0.304-1.966-0.913c-0.457-0.607-0.687-1.391-0.687-2.348
	v-1.148c0-0.952,0.229-1.735,0.687-2.348c0.459-0.613,1.113-0.92,1.966-0.92c0.688,0,1.257,0.24,1.706,0.721
	c0.448,0.481,0.666,1.113,0.652,1.897l-0.014,0.034h-0.731c0-0.588-0.153-1.057-0.462-1.404c-0.307-0.35-0.691-0.523-1.151-0.523
	c-0.638,0-1.103,0.241-1.395,0.723c-0.292,0.482-0.438,1.091-0.438,1.826v1.15c0,0.745,0.146,1.356,0.438,1.836
	C359.653,77.416,360.118,77.655,360.756,77.655z"/>
<path fill="#5C7481" d="M368.439,78.209c-0.041-0.255-0.071-0.465-0.093-0.629c-0.02-0.164-0.03-0.33-0.03-0.499
	c-0.224,0.369-0.514,0.673-0.872,0.913c-0.357,0.238-0.755,0.358-1.192,0.358c-0.61,0-1.083-0.19-1.415-0.571
	c-0.332-0.38-0.499-0.894-0.499-1.541c0-0.688,0.241-1.236,0.725-1.645c0.483-0.407,1.138-0.611,1.962-0.611h1.292v-0.909
	c0-0.524-0.132-0.935-0.396-1.23s-0.634-0.444-1.107-0.444c-0.442,0-0.806,0.142-1.091,0.424c-0.284,0.282-0.427,0.629-0.427,1.039
	l-0.766-0.007l-0.014-0.041c-0.022-0.556,0.188-1.052,0.632-1.487c0.445-0.435,1.014-0.652,1.706-0.652
	c0.684,0,1.235,0.209,1.654,0.625c0.419,0.418,0.629,1.014,0.629,1.788v3.63c0,0.265,0.011,0.52,0.034,0.766
	s0.064,0.487,0.123,0.725H368.439z M366.354,77.614c0.455,0,0.86-0.131,1.213-0.394c0.354-0.262,0.604-0.596,0.749-1.001v-1.6
	h-1.313c-0.561,0-1.009,0.158-1.343,0.476c-0.336,0.316-0.503,0.707-0.503,1.172c0,0.396,0.104,0.72,0.314,0.971
	S365.976,77.614,366.354,77.614z"/>
<path fill="#5C7481" d="M371.919,78.209h-0.827V67.545h0.827V78.209z"/>
<path fill="#5C7481" d="M4.73,73.396H0.82v4.115h4.491v0.697H0v-9.953h5.271v0.725H0.82v3.719h3.91V73.396z"/>
<path fill="#5C7481" d="M10.206,76.446c0-0.339-0.11-0.631-0.332-0.876s-0.625-0.502-1.213-0.772
	c-0.752-0.31-1.302-0.626-1.651-0.946c-0.349-0.322-0.523-0.742-0.523-1.262c0-0.528,0.208-0.979,0.622-1.354
	s0.953-0.561,1.613-0.561c0.702,0,1.258,0.207,1.668,0.622s0.606,0.932,0.588,1.552l-0.014,0.041h-0.772
	c0-0.401-0.132-0.75-0.396-1.046S9.174,71.4,8.723,71.4c-0.46,0-0.811,0.116-1.053,0.349s-0.362,0.504-0.362,0.813
	c0,0.328,0.096,0.592,0.287,0.789c0.191,0.199,0.602,0.448,1.23,0.749c0.738,0.296,1.29,0.618,1.654,0.968
	c0.365,0.348,0.547,0.789,0.547,1.322c0,0.588-0.211,1.062-0.632,1.422s-0.979,0.54-1.671,0.54c-0.761,0-1.357-0.215-1.788-0.645
	c-0.431-0.429-0.635-0.939-0.612-1.53l0.014-0.04h0.766c0.027,0.531,0.198,0.917,0.513,1.157s0.684,0.36,1.107,0.36
	c0.46,0,0.823-0.117,1.087-0.351S10.206,76.785,10.206,76.446z"/>
<path fill="#5C7481" d="M13.774,68.926v1.887h1.285v0.697h-1.285v4.794c0,0.478,0.068,0.816,0.205,1.017
	c0.137,0.201,0.317,0.301,0.54,0.301c0.109,0,0.216-0.007,0.321-0.021s0.223-0.034,0.355-0.062l0.109,0.629
	c-0.109,0.055-0.252,0.1-0.427,0.133c-0.175,0.035-0.352,0.052-0.53,0.052c-0.438,0-0.78-0.164-1.029-0.491
	c-0.249-0.328-0.373-0.848-0.373-1.558V71.51h-1.025v-0.697h1.025v-1.887H13.774z"/>
<path fill="#5C7481" d="M20.453,78.209c-0.041-0.255-0.072-0.465-0.092-0.629s-0.031-0.33-0.031-0.499
	c-0.223,0.369-0.514,0.673-0.872,0.913c-0.358,0.238-0.755,0.358-1.193,0.358c-0.611,0-1.083-0.19-1.415-0.571
	c-0.333-0.38-0.499-0.894-0.499-1.541c0-0.688,0.242-1.236,0.725-1.645c0.483-0.407,1.137-0.611,1.962-0.611h1.292v-0.909
	c0-0.524-0.132-0.935-0.396-1.23S19.3,71.4,18.826,71.4c-0.442,0-0.806,0.142-1.09,0.424s-0.427,0.629-0.427,1.039l-0.766-0.007
	l-0.014-0.041c-0.023-0.556,0.188-1.052,0.632-1.487c0.444-0.435,1.013-0.652,1.706-0.652c0.684,0,1.235,0.209,1.654,0.625
	c0.419,0.418,0.629,1.014,0.629,1.788v3.63c0,0.265,0.011,0.52,0.034,0.766s0.064,0.487,0.123,0.725H20.453z M18.368,77.614
	c0.456,0,0.86-0.131,1.213-0.394c0.353-0.262,0.603-0.596,0.749-1.001v-1.6h-1.313c-0.561,0-1.008,0.158-1.343,0.476
	c-0.335,0.316-0.502,0.707-0.502,1.172c0,0.396,0.105,0.72,0.314,0.971S17.99,77.614,18.368,77.614z"/>
<path fill="#5C7481" d="M28.062,75.16c0,0.971-0.208,1.745-0.625,2.324s-0.992,0.868-1.726,0.868c-0.433,0-0.808-0.098-1.125-0.294
	s-0.575-0.477-0.776-0.841l-0.082,0.991h-0.704V67.545h0.82v4.272c0.201-0.364,0.456-0.646,0.766-0.845
	c0.31-0.197,0.672-0.297,1.087-0.297c0.738,0,1.317,0.307,1.736,0.92c0.419,0.612,0.629,1.427,0.629,2.443V75.16z M27.234,74.039
	c0-0.779-0.145-1.412-0.434-1.896c-0.29-0.486-0.719-0.729-1.289-0.729c-0.424,0-0.771,0.13-1.042,0.39s-0.479,0.597-0.625,1.012
	v3.514c0.15,0.396,0.365,0.711,0.643,0.943s0.625,0.349,1.039,0.349c0.57,0,0.997-0.224,1.282-0.67s0.427-1.044,0.427-1.791V74.039z
	"/>
<path fill="#5C7481" d="M32.033,78.353c-0.797,0-1.449-0.3-1.955-0.899c-0.506-0.599-0.759-1.363-0.759-2.293v-1.23
	c0-0.935,0.254-1.71,0.762-2.328c0.508-0.617,1.12-0.926,1.835-0.926c0.775,0,1.376,0.276,1.805,0.828s0.643,1.293,0.643,2.224
	v0.811h-4.231v0.613c0,0.718,0.171,1.314,0.513,1.79s0.804,0.714,1.388,0.714c0.406,0,0.755-0.071,1.049-0.214
	s0.546-0.345,0.755-0.606l0.335,0.578c-0.223,0.286-0.512,0.514-0.865,0.685C32.955,78.268,32.53,78.353,32.033,78.353z
	 M31.917,71.4c-0.515,0-0.938,0.234-1.268,0.704s-0.502,1.048-0.516,1.736h3.411v-0.314c0-0.61-0.144-1.118-0.431-1.521
	C32.826,71.602,32.427,71.4,31.917,71.4z"/>
<path fill="#5C7481" d="M36.709,78.209h-0.827V67.545h0.827V78.209z"/>
<path fill="#5C7481" d="M41.036,78.353c-0.797,0-1.449-0.3-1.955-0.899c-0.506-0.599-0.759-1.363-0.759-2.293v-1.23
	c0-0.935,0.254-1.71,0.762-2.328c0.508-0.617,1.12-0.926,1.835-0.926c0.775,0,1.376,0.276,1.805,0.828s0.643,1.293,0.643,2.224
	v0.811h-4.231v0.613c0,0.718,0.171,1.314,0.513,1.79s0.804,0.714,1.388,0.714c0.406,0,0.755-0.071,1.049-0.214
	s0.546-0.345,0.755-0.606l0.335,0.578c-0.223,0.286-0.512,0.514-0.865,0.685C41.958,78.268,41.533,78.353,41.036,78.353z
	 M40.92,71.4c-0.515,0-0.938,0.234-1.268,0.704s-0.502,1.048-0.516,1.736h3.411v-0.314c0-0.61-0.144-1.118-0.431-1.521
	C41.829,71.602,41.43,71.4,40.92,71.4z"/>
<path fill="#5C7481" d="M47.141,77.655c0.428,0,0.804-0.155,1.128-0.465c0.324-0.311,0.485-0.738,0.485-1.285h0.725l0.021,0.041
	c0.014,0.684-0.216,1.256-0.69,1.716s-1.03,0.69-1.668,0.69c-0.852,0-1.507-0.304-1.965-0.913c-0.458-0.607-0.687-1.391-0.687-2.348
	v-1.148c0-0.952,0.229-1.735,0.687-2.348c0.458-0.613,1.113-0.92,1.965-0.92c0.688,0,1.257,0.24,1.706,0.721
	c0.449,0.481,0.667,1.113,0.653,1.897l-0.014,0.034h-0.731c0-0.588-0.154-1.057-0.461-1.404c-0.308-0.35-0.691-0.523-1.152-0.523
	c-0.638,0-1.103,0.241-1.395,0.723c-0.292,0.482-0.438,1.091-0.438,1.826v1.15c0,0.745,0.146,1.356,0.438,1.836
	C46.038,77.416,46.502,77.655,47.141,77.655z"/>
<path fill="#5C7481" d="M51.892,68.707h-0.827v-1.162h0.827V68.707z M51.892,78.209h-0.827v-7.396h0.827V78.209z"/>
<path fill="#5C7481" d="M54.537,70.813l0.068,1.148c0.196-0.41,0.456-0.727,0.779-0.95s0.704-0.335,1.142-0.335
	c0.447,0,0.823,0.131,1.128,0.393c0.305,0.263,0.529,0.66,0.67,1.193c0.182-0.492,0.441-0.88,0.776-1.162s0.739-0.424,1.213-0.424
	c0.647,0,1.149,0.264,1.507,0.789c0.358,0.527,0.537,1.335,0.537,2.424v4.32H61.53v-4.334c0-0.907-0.123-1.545-0.369-1.914
	s-0.597-0.554-1.053-0.554c-0.479,0-0.852,0.205-1.121,0.615s-0.433,0.925-0.492,1.545v0.191v4.45h-0.82v-4.327
	c0-0.889-0.126-1.522-0.379-1.9s-0.605-0.567-1.056-0.567c-0.433,0-0.78,0.131-1.042,0.393c-0.262,0.263-0.45,0.621-0.564,1.077
	v5.325h-0.82v-7.396H54.537z"/>
<path fill="#5C7481" d="M66.575,78.353c-0.797,0-1.449-0.3-1.955-0.899c-0.506-0.599-0.759-1.363-0.759-2.293v-1.23
	c0-0.935,0.254-1.71,0.762-2.328c0.508-0.617,1.12-0.926,1.835-0.926c0.775,0,1.376,0.276,1.805,0.828s0.643,1.293,0.643,2.224
	v0.811h-4.231v0.613c0,0.718,0.171,1.314,0.513,1.79s0.804,0.714,1.388,0.714c0.406,0,0.755-0.071,1.049-0.214
	s0.546-0.345,0.755-0.606l0.335,0.578c-0.223,0.286-0.512,0.514-0.865,0.685C67.497,78.268,67.072,78.353,66.575,78.353z
	 M66.459,71.4c-0.515,0-0.938,0.234-1.268,0.704s-0.502,1.048-0.516,1.736h3.411v-0.314c0-0.61-0.144-1.118-0.431-1.521
	C67.368,71.602,66.969,71.4,66.459,71.4z"/>
<path fill="#5C7481" d="M71.073,70.813l0.068,1.224c0.196-0.433,0.457-0.768,0.783-1.005s0.708-0.355,1.145-0.355
	c0.661,0,1.168,0.245,1.521,0.734c0.353,0.49,0.53,1.253,0.53,2.287v4.512h-0.827v-4.505c0-0.843-0.123-1.436-0.369-1.777
	s-0.604-0.513-1.073-0.513c-0.419,0-0.77,0.138-1.053,0.414c-0.283,0.275-0.495,0.644-0.636,1.104v5.277h-0.82v-7.396H71.073z"/>
<path fill="#5C7481" d="M78.176,68.926v1.887h1.285v0.697h-1.285v4.794c0,0.478,0.068,0.816,0.205,1.017
	c0.137,0.201,0.317,0.301,0.54,0.301c0.109,0,0.216-0.007,0.321-0.021s0.223-0.034,0.355-0.062l0.109,0.629
	c-0.109,0.055-0.252,0.1-0.427,0.133c-0.175,0.035-0.352,0.052-0.53,0.052c-0.438,0-0.78-0.164-1.029-0.491
	c-0.249-0.328-0.373-0.848-0.373-1.558V71.51h-1.025v-0.697h1.025v-1.887H78.176z"/>
<path fill="#5C7481" d="M80.534,73.971c0-0.957,0.246-1.745,0.738-2.365s1.153-0.93,1.982-0.93s1.491,0.309,1.986,0.926
	c0.495,0.618,0.742,1.407,0.742,2.369v1.087c0,0.971-0.246,1.763-0.738,2.376c-0.492,0.612-1.153,0.919-1.982,0.919
	c-0.834,0-1.497-0.307-1.989-0.919c-0.492-0.613-0.738-1.405-0.738-2.376V73.971z M81.361,75.065c0,0.74,0.164,1.356,0.492,1.85
	s0.797,0.74,1.408,0.74c0.597,0,1.062-0.248,1.395-0.743c0.333-0.496,0.499-1.111,0.499-1.847v-1.089
	c0-0.727-0.167-1.337-0.499-1.833c-0.333-0.495-0.8-0.743-1.401-0.743c-0.606,0-1.073,0.248-1.401,0.743
	c-0.328,0.496-0.492,1.106-0.492,1.833V75.065z"/>
<path fill="#5C7481" d="M24.432,92.117l0.021,0.041c-0.009,0.971-0.264,1.713-0.766,2.225c-0.501,0.514-1.192,0.77-2.071,0.77
	c-0.916,0-1.643-0.323-2.181-0.971s-0.807-1.57-0.807-2.769v-2.755c0-1.189,0.27-2.111,0.81-2.766c0.54-0.653,1.266-0.98,2.177-0.98
	c0.889,0,1.582,0.251,2.078,0.752s0.75,1.249,0.759,2.242l-0.021,0.041h-0.759c-0.023-0.788-0.205-1.371-0.547-1.746
	c-0.342-0.377-0.845-0.564-1.511-0.564c-0.684,0-1.217,0.258-1.6,0.773s-0.574,1.26-0.574,2.232v2.779
	c0,0.991,0.191,1.744,0.574,2.26s0.916,0.773,1.6,0.773c0.666,0,1.169-0.185,1.511-0.554s0.524-0.964,0.547-1.784H24.432z"/>
<path fill="#5C7481" d="M25.724,90.771c0-0.957,0.246-1.745,0.738-2.365s1.153-0.93,1.982-0.93s1.491,0.309,1.986,0.927
	c0.495,0.617,0.742,1.406,0.742,2.368v1.087c0,0.971-0.246,1.763-0.738,2.375c-0.492,0.613-1.153,0.92-1.982,0.92
	c-0.834,0-1.497-0.307-1.989-0.92c-0.492-0.612-0.738-1.404-0.738-2.375V90.771z M26.551,91.865c0,0.74,0.164,1.356,0.492,1.85
	s0.797,0.74,1.408,0.74c0.597,0,1.062-0.248,1.395-0.743c0.333-0.496,0.499-1.111,0.499-1.847v-1.089
	c0-0.727-0.167-1.337-0.499-1.833c-0.333-0.495-0.8-0.743-1.401-0.743c-0.606,0-1.073,0.248-1.401,0.743
	c-0.328,0.496-0.492,1.106-0.492,1.833V91.865z"/>
<path fill="#5C7481" d="M33.394,87.612l0.068,1.148c0.196-0.41,0.456-0.727,0.779-0.95s0.704-0.335,1.142-0.335
	c0.447,0,0.823,0.131,1.128,0.394c0.305,0.262,0.529,0.659,0.67,1.192c0.182-0.492,0.441-0.88,0.776-1.162s0.739-0.424,1.213-0.424
	c0.647,0,1.149,0.263,1.507,0.79c0.358,0.525,0.537,1.334,0.537,2.423v4.32h-0.827v-4.334c0-0.907-0.123-1.545-0.369-1.914
	s-0.597-0.554-1.053-0.554c-0.479,0-0.852,0.205-1.121,0.615s-0.433,0.925-0.492,1.545v0.191v4.45h-0.82v-4.327
	c0-0.889-0.126-1.522-0.379-1.9s-0.605-0.567-1.056-0.567c-0.433,0-0.78,0.131-1.042,0.394c-0.262,0.262-0.45,0.62-0.564,1.076
	v5.325h-0.82v-7.396H33.394z"/>
<path fill="#5C7481" d="M45.432,95.152c-0.797,0-1.449-0.3-1.955-0.898c-0.506-0.6-0.759-1.364-0.759-2.294v-1.23
	c0-0.935,0.254-1.71,0.762-2.327c0.508-0.618,1.12-0.927,1.835-0.927c0.775,0,1.376,0.276,1.805,0.828s0.643,1.293,0.643,2.224
	v0.811h-4.231v0.613c0,0.718,0.171,1.314,0.513,1.79s0.804,0.714,1.388,0.714c0.406,0,0.755-0.071,1.049-0.214
	s0.546-0.345,0.755-0.606l0.335,0.578c-0.223,0.286-0.512,0.514-0.865,0.685C46.354,95.067,45.928,95.152,45.432,95.152z
	 M45.315,88.2c-0.515,0-0.938,0.234-1.268,0.704s-0.502,1.048-0.516,1.736h3.411v-0.314c0-0.61-0.144-1.117-0.431-1.521
	C46.225,88.402,45.826,88.2,45.315,88.2z"/>
<path fill="#5C7481" d="M52.063,88.351l-0.54-0.041c-0.383,0-0.7,0.129-0.95,0.386c-0.25,0.258-0.435,0.612-0.554,1.063v5.25h-0.82
	v-7.396h0.725l0.096,1.224c0.173-0.429,0.402-0.762,0.687-1.002c0.285-0.238,0.619-0.358,1.001-0.358
	c0.086,0,0.173,0.008,0.26,0.024c0.086,0.016,0.155,0.032,0.205,0.051L52.063,88.351z"/>
<path fill="#5C7481" d="M55.515,94.455c0.428,0,0.804-0.155,1.128-0.465c0.324-0.311,0.485-0.738,0.485-1.285h0.725l0.021,0.041
	c0.014,0.684-0.216,1.256-0.69,1.716s-1.03,0.69-1.668,0.69c-0.852,0-1.507-0.305-1.965-0.912c-0.458-0.609-0.687-1.392-0.687-2.349
	v-1.148c0-0.952,0.229-1.735,0.687-2.349c0.458-0.612,1.113-0.919,1.965-0.919c0.688,0,1.257,0.24,1.706,0.722
	c0.449,0.48,0.667,1.112,0.653,1.896l-0.014,0.034h-0.731c0-0.588-0.154-1.056-0.461-1.405c-0.308-0.348-0.691-0.522-1.152-0.522
	c-0.638,0-1.103,0.241-1.395,0.723c-0.292,0.482-0.438,1.091-0.438,1.826v1.15c0,0.745,0.146,1.356,0.438,1.836
	C54.412,94.216,54.876,94.455,55.515,94.455z"/>
<path fill="#5C7481" d="M60.266,85.507h-0.827v-1.162h0.827V85.507z M60.266,95.009h-0.827v-7.396h0.827V95.009z"/>
<path fill="#5C7481" d="M66.049,95.009c-0.041-0.255-0.072-0.465-0.092-0.629s-0.031-0.33-0.031-0.499
	c-0.223,0.369-0.514,0.674-0.872,0.912c-0.358,0.24-0.755,0.359-1.193,0.359c-0.611,0-1.083-0.19-1.415-0.57
	c-0.333-0.381-0.499-0.895-0.499-1.542c0-0.688,0.242-1.236,0.725-1.644c0.483-0.408,1.137-0.612,1.962-0.612h1.292v-0.909
	c0-0.524-0.132-0.935-0.396-1.23S64.896,88.2,64.422,88.2c-0.442,0-0.806,0.142-1.09,0.424s-0.427,0.629-0.427,1.039l-0.766-0.007
	l-0.014-0.041c-0.023-0.556,0.188-1.052,0.632-1.486c0.444-0.436,1.013-0.653,1.706-0.653c0.684,0,1.235,0.208,1.654,0.626
	c0.419,0.416,0.629,1.013,0.629,1.787v3.63c0,0.265,0.011,0.52,0.034,0.766s0.064,0.487,0.123,0.725H66.049z M63.964,94.414
	c0.456,0,0.86-0.131,1.213-0.393c0.353-0.263,0.603-0.597,0.749-1.002v-1.6h-1.313c-0.561,0-1.008,0.158-1.343,0.475
	c-0.335,0.317-0.502,0.708-0.502,1.173c0,0.396,0.105,0.72,0.314,0.971S63.585,94.414,63.964,94.414z"/>
<path fill="#5C7481" d="M69.528,95.009h-0.827V84.345h0.827V95.009z"/>
<g opacity="0.8">
	<g>
		<path fill="#5C7481" d="M96.254,29.197c2.693-0.675,5.386-1.031,8.079-1.287c2.693-0.271,5.386-0.363,8.079-0.398
			c2.693-0.021,5.386,0.07,8.079,0.248c2.693,0.229,5.386,0.519,8.08,1.057v0.59l-16.159,0.085l-16.158-0.095V29.197z"/>
		<g>
			<path fill="#5C7481" d="M119.594,36.341c-0.231,0-0.457-0.115-0.591-0.324c-0.208-0.325-0.111-0.759,0.215-0.967l9.034-5.753
				l-9.034-5.753c-0.326-0.208-0.422-0.642-0.215-0.967c0.208-0.325,0.644-0.42,0.967-0.215l9.96,6.344
				c0.202,0.129,0.324,0.352,0.324,0.591s-0.123,0.462-0.324,0.591l-9.96,6.344C119.853,36.305,119.723,36.341,119.594,36.341
				C119.363,36.341,119.723,36.341,119.594,36.341z"/>
		</g>
	</g>
</g>
<g opacity="0.8">
	<g>
		<path fill="#5C7481" d="M234.254,29.197c2.692-0.675,5.386-1.031,8.079-1.287c2.693-0.271,5.387-0.363,8.079-0.398
			c2.693-0.021,5.386,0.07,8.079,0.248c2.693,0.229,5.387,0.519,8.08,1.057v0.59l-16.159,0.085l-16.158-0.095V29.197z"/>
		<g>
			<path fill="#5C7481" d="M257.594,36.341c-0.231,0-0.457-0.115-0.591-0.324c-0.208-0.325-0.111-0.759,0.215-0.967l9.033-5.753
				l-9.033-5.753c-0.326-0.208-0.423-0.642-0.215-0.967c0.207-0.325,0.643-0.42,0.967-0.215l9.96,6.344
				c0.202,0.129,0.324,0.352,0.324,0.591s-0.122,0.462-0.324,0.591l-9.96,6.344C257.853,36.305,257.723,36.341,257.594,36.341
				C257.362,36.341,257.723,36.341,257.594,36.341z"/>
		</g>
	</g>
</g>
<path fill="#5C7481" d="M15.052,24.688c0,3.393,2.328,6.219,5.466,7.033v23.945h-3.644c-1.004,0-1.822,0.815-1.822,1.822
	c0,1.008,0.818,1.822,1.822,1.822h54.668c1.01,0,1.822-0.814,1.822-1.822c0-1.007-0.813-1.822-1.822-1.822h-3.646V31.722
	c3.14-0.814,5.468-3.641,5.468-7.033v-1.821H15.052V24.688z M51.496,31.979c4.029,0,7.29-3.265,7.29-7.29
	c0,3.393,2.326,6.219,5.467,7.033v23.945H36.918V31.979c4.029,0,7.289-3.265,7.289-7.29C44.207,28.714,47.475,31.979,51.496,31.979
	L51.496,31.979z M35.097,31.722v23.945H24.163V31.722c3.139-0.814,5.467-3.641,5.467-7.033
	C29.63,28.081,31.957,30.907,35.097,31.722L35.097,31.722z M66.074,6.466H22.341l-7.289,14.578h58.313L66.074,6.466z M30.448,10.517
	l-3.645,7.289c-0.164,0.319-0.483,0.505-0.817,0.505c-0.138,0-0.274-0.027-0.406-0.096c-0.448-0.224-0.634-0.772-0.406-1.221
	l3.645-7.289c0.228-0.448,0.772-0.629,1.22-0.409C30.49,9.52,30.669,10.067,30.448,10.517L30.448,10.517z M37.737,10.517
	l-3.645,7.289c-0.164,0.319-0.483,0.505-0.818,0.505c-0.135,0-0.274-0.027-0.406-0.096c-0.448-0.224-0.633-0.772-0.405-1.221
	l3.644-7.289c0.229-0.448,0.776-0.629,1.221-0.409C37.78,9.52,37.957,10.067,37.737,10.517L37.737,10.517z M45.118,17.399
	c0,0.506-0.406,0.911-0.911,0.911c-0.502,0-0.91-0.405-0.91-0.911V10.11c0-0.505,0.408-0.91,0.91-0.91
	c0.506,0,0.911,0.405,0.911,0.91V17.399z M55.582,18.197c-0.143,0.078-0.292,0.113-0.44,0.113c-0.321,0-0.634-0.17-0.798-0.474
	l-3.986-7.288c-0.241-0.441-0.078-0.997,0.364-1.235c0.434-0.242,0.996-0.085,1.238,0.359l3.985,7.289
	C56.181,17.403,56.023,17.958,55.582,18.197L55.582,18.197z M62.836,18.215c-0.128,0.067-0.264,0.096-0.405,0.096
	c-0.335,0-0.655-0.186-0.813-0.505l-3.645-7.29c-0.228-0.448-0.042-0.996,0.406-1.22c0.441-0.225,0.997-0.043,1.224,0.409
	l3.645,7.289C63.469,17.442,63.291,17.991,62.836,18.215L62.836,18.215z M30.541,45.012v-4.2c-0.534-0.321-0.911-0.876-0.911-1.545
	c0-1.007,0.818-1.822,1.822-1.822c1.011,0,1.822,0.815,1.822,1.822c0,0.669-0.375,1.224-0.911,1.545v4.2
	c0.536,0.319,0.911,0.875,0.911,1.544c0,1.007-0.812,1.822-1.822,1.822c-1.005,0-1.822-0.815-1.822-1.822
	C29.63,45.887,30.007,45.331,30.541,45.012L30.541,45.012z M22.341,2.822C22.341,1.814,23.159,1,24.163,1h40.09
	c1.01,0,1.821,0.814,1.821,1.822c0,1.007-0.812,1.822-1.821,1.822h-40.09C23.159,4.645,22.341,3.829,22.341,2.822L22.341,2.822z
	 M46.991,41.733l-1.289-1.289l5.153-5.153l1.289,1.289L46.991,41.733z M46.991,46.887l-1.289-1.289L56.01,35.291l1.288,1.289
	L46.991,46.887z M56.01,40.444l1.288,1.289l-5.153,5.153l-1.289-1.289L56.01,40.444z M56.01,40.444"/>
<path fill="#7595AE" d="M302.04,46.227c-0.14,0.027-0.248,0.058-0.306,0.091c-0.107,0.063-0.159,0.16-0.159,0.287
	c0,0.114,0.032,0.197,0.096,0.248c0.063,0.05,0.141,0.083,0.234,0.083c0.146,0,0.281-0.044,0.408-0.134
	c0.123-0.083,0.187-0.237,0.192-0.466v-0.249c-0.046,0.026-0.083,0.052-0.127,0.063c-0.046,0.021-0.108,0.035-0.187,0.048
	L302.04,46.227z M302.04,46.227"/>
<path fill="#7595AE" d="M313.3,35.071l-0.975,1.681h0.975V35.071z M313.3,35.071"/>
<path fill="#7595AE" d="M317.382,46.227c-0.146,0.027-0.248,0.058-0.313,0.091c-0.107,0.063-0.158,0.16-0.158,0.287
	c0,0.114,0.031,0.197,0.095,0.248c0.063,0.05,0.146,0.083,0.237,0.083c0.15,0,0.283-0.044,0.406-0.134
	c0.127-0.083,0.191-0.237,0.197-0.466v-0.249c-0.045,0.026-0.09,0.052-0.134,0.063c-0.046,0.021-0.103,0.035-0.179,0.048
	L317.382,46.227z M317.382,46.227"/>
<path fill="#7595AE" d="M309.142,45.255c-0.174,0-0.307,0.043-0.402,0.144c-0.096,0.098-0.152,0.23-0.178,0.396h1.158
	c-0.005-0.18-0.07-0.313-0.178-0.407C309.435,45.298,309.3,45.255,309.142,45.255L309.142,45.255z M309.142,45.255"/>
<path fill="#7595AE" d="M319.694,37.477c0.094-0.125,0.145-0.293,0.145-0.497c0-0.228-0.057-0.407-0.165-0.527
	c-0.112-0.12-0.247-0.178-0.413-0.178c-0.127,0-0.242,0.037-0.345,0.121c-0.153,0.113-0.229,0.3-0.229,0.561
	c0,0.21,0.059,0.381,0.172,0.514c0.115,0.134,0.256,0.204,0.434,0.204C319.458,37.668,319.591,37.604,319.694,37.477L319.694,37.477
	z M319.694,37.477"/>
<path fill="#7595AE" d="M297.78,37.668c0.229,0,0.376-0.119,0.446-0.355c0.076-0.242,0.107-0.587,0.107-1.032
	c0-0.471-0.031-0.821-0.107-1.052c-0.07-0.223-0.218-0.338-0.446-0.338s-0.383,0.115-0.453,0.338
	c-0.076,0.23-0.108,0.581-0.108,1.052c0,0.445,0.032,0.79,0.108,1.032C297.405,37.549,297.552,37.668,297.78,37.668L297.78,37.668z
	 M297.78,37.668"/>
<path fill="#5C7481" d="M366.45,0h-4.457l-1.402,1.401L359.19,0h-3.719l-1.402,1.401L352.669,0h-3.72l-1.4,1.401L346.147,0h-3.719
	l-1.4,1.401L339.627,0h-3.72l-1.4,1.401L333.106,0h-4.102l-0.249,0.617c-0.026,0.082-1.032,2.707-2.038,7.438h-31.334
	c-2.604,0-4.725,2.146-4.725,4.789v35.262c0,2.644,2.121,4.788,4.725,4.788h31.717c0.465,2.3,1,4.649,1.617,7.063l0.19,0.732h4.051
	l1.548-1.547l1.554,1.547h3.413l1.555-1.547l1.547,1.547h3.42l1.554-1.547l1.548,1.547h3.42l1.553-1.547l1.549,1.547h3.42
	l1.553-1.547l1.549,1.547h4.184l-0.332-1.233c-8.985-33.08-0.113-57.89-0.025-58.14L366.45,0z M360.751,16.622
	c-0.039,0.316-0.084,0.617-0.115,0.942c-0.688,6.233-1.024,14.805,0.115,24.848c0.579,5.095,1.527,10.573,3.025,16.322h-0.822
	l-2.363-2.361l-2.361,2.361h-1.797l-2.363-2.361l-2.361,2.361h-1.797l-2.362-2.361l-2.362,2.361h-1.803l-2.355-2.361l-2.363,2.361
	h-1.803l-2.361-2.361l-2.363,2.361h-1.714c-0.503-1.986-0.948-3.934-1.337-5.84c-0.089-0.438-0.172-0.87-0.255-1.306
	c-0.083-0.432-0.172-0.872-0.255-1.304c-0.178-0.981-0.344-1.95-0.496-2.906c-0.07-0.464-0.141-0.922-0.204-1.387
	c-0.021-0.133-0.045-0.261-0.057-0.394c-0.026-0.146-0.05-0.301-0.071-0.454c-2.102-14.953-0.975-26.873,0.434-34.483
	c0.082-0.448,0.166-0.88,0.248-1.299c0.096-0.452,0.185-0.894,0.273-1.307c0.669-3.056,1.318-5.133,1.65-6.101h1.936l2.211,2.209
	l2.209-2.209h2.102l2.21,2.209l2.21-2.209h2.102l2.21,2.209l2.21-2.209h2.102l2.209,2.209l2.203-2.209h2.102l2.211,2.209
	l2.209-2.209h0.892C362.993,4.222,361.616,9.328,360.751,16.622L360.751,16.622z M306.956,38.294"/>
<path fill="#5C7481" d="M336.901,15.476h16.85v-1.955h-21.365v1.955h3.287H336.901z M336.901,15.476"/>
<path fill="#5C7481" d="M333.952,22.156h18.494v-1.961h-21.359v1.961h2.19H333.952z M333.952,22.156"/>
<rect x="331.087" y="26.875" fill="#5C7481" width="21.359" height="1.954"/>
<path fill="#5C7481" d="M332.386,34.587v0.915h21.365v-1.953h-21.365V34.587z M332.386,34.587"/>
<path fill="#F9F9F9" d="M305.009,39.836l0.018,0.036c0.008,0.954-0.219,1.673-0.68,2.158c-0.461,0.484-1.141,0.727-2.039,0.727
	c-0.897,0-1.615-0.275-2.151-0.825c-0.536-0.551-0.805-1.33-0.805-2.34v-2.593c0-1.006,0.259-1.785,0.778-2.34
	c0.519-0.555,1.213-0.832,2.083-0.832c0.922,0,1.618,0.247,2.089,0.739c0.471,0.493,0.715,1.223,0.73,2.188l-0.018,0.035h-1.633
	c0.023-0.57-0.055-0.981-0.232-1.232c-0.18-0.251-0.491-0.377-0.937-0.377c-0.382,0-0.673,0.149-0.876,0.447
	c-0.203,0.299-0.305,0.75-0.305,1.354v2.607c0,0.613,0.109,1.068,0.325,1.366c0.217,0.299,0.534,0.448,0.95,0.448
	c0.41,0,0.695-0.118,0.855-0.355c0.162-0.236,0.232-0.641,0.213-1.213H305.009z"/>
<path fill="#F9F9F9" d="M307.751,39.515v3.117h-1.699v-8.679h3.016c0.867,0,1.551,0.256,2.051,0.768
	c0.501,0.513,0.752,1.184,0.752,2.013c0,0.834-0.252,1.506-0.755,2.016c-0.503,0.511-1.185,0.766-2.048,0.766H307.751z
	 M307.751,38.161h1.316c0.362,0,0.639-0.134,0.829-0.4s0.286-0.605,0.286-1.016c0-0.414-0.094-0.757-0.283-1.03
	c-0.189-0.272-0.466-0.409-0.832-0.409h-1.316V38.161z"/>
<path fill="#F9F9F9" d="M317.599,39.025h-2.945v3.606h-1.699v-8.679h5.162v1.353h-3.463v2.367h2.945V39.025z"/>
<path fill="#5C7481" d="M340.724,43.864c0.159-0.004,0.285-0.138,0.281-0.297l-0.081-2.99c-0.005-0.159-0.138-0.284-0.297-0.282
	l-2.989,0.082c-0.16,0.004-0.286,0.138-0.282,0.297l0.081,2.99c0.004,0.159,0.137,0.285,0.297,0.281L340.724,43.864z
	 M337.941,40.947l2.413-0.066l0.064,2.413l-2.412,0.066L337.941,40.947z M337.941,40.947"/>
<rect x="338.574" y="41.514" transform="matrix(-0.9996 0.0274 -0.0274 -0.9996 679.387 74.9437)" fill="#5C7481" width="1.213" height="1.212"/>
<path fill="#5C7481" d="M348.918,40.072l-2.99,0.081c-0.159,0.005-0.285,0.138-0.28,0.296l0.08,2.99
	c0.004,0.161,0.137,0.286,0.297,0.281l2.99-0.08c0.159-0.004,0.285-0.137,0.28-0.297l-0.08-2.991
	C349.21,40.194,349.077,40.067,348.918,40.072L348.918,40.072z M348.71,43.07l-2.412,0.064l-0.066-2.412l2.414-0.063L348.71,43.07z
	 M348.71,43.07"/>
<rect x="346.865" y="41.29" transform="matrix(-0.9996 0.0274 -0.0274 -0.9996 695.9597 74.2697)" fill="#5C7481" width="1.213" height="1.214"/>
<path fill="#5C7481" d="M349.142,48.368l-2.989,0.081c-0.16,0.004-0.286,0.137-0.281,0.297l0.081,2.989
	c0.004,0.16,0.137,0.285,0.297,0.282l2.988-0.083c0.16-0.003,0.287-0.135,0.282-0.296l-0.081-2.989
	C349.435,48.49,349.302,48.365,349.142,48.368L349.142,48.368z M348.935,51.366l-2.413,0.065l-0.065-2.413l2.412-0.066
	L348.935,51.366z M348.935,51.366"/>
<rect x="347.087" y="49.586" transform="matrix(-0.9996 0.0273 -0.0273 -0.9996 696.6302 90.8667)" fill="#5C7481" width="1.215" height="1.213"/>
<path fill="#5C7481" d="M339.368,48.835l-0.035-1.297l1.574-0.044c0.041-0.001,0.072-0.033,0.072-0.073l-0.038-1.37
	c-0.001-0.041-0.034-0.072-0.075-0.071l-1.574,0.042l-0.035-1.298c0-0.039-0.033-0.072-0.072-0.07l-1.648,0.045
	c-0.039,0.001-0.07,0.034-0.07,0.073l0.037,1.371c0.002,0.04,0.035,0.072,0.075,0.071l1.573-0.043l0.034,1.227l-1.575,0.043
	c-0.039,0.001-0.07,0.033-0.07,0.073l0.037,1.371c0.001,0.039,0.035,0.07,0.074,0.069l1.646-0.044
	C339.338,48.908,339.37,48.875,339.368,48.835L339.368,48.835z M339.368,48.835"/>
<path fill="#5C7481" d="M341.784,45.416c-0.041,0.001-0.072,0.034-0.071,0.073l0.043,1.596c0.001,0.039,0.034,0.072,0.075,0.07
	l1.596-0.042c0.039-0.001,0.07-0.036,0.07-0.075l-0.043-1.596c-0.002-0.04-0.035-0.07-0.074-0.069L341.784,45.416z M341.784,45.416"
	/>
<path fill="#5C7481" d="M342.857,43.454l1.948-0.053c0.039,0,0.072-0.034,0.07-0.073l-0.053-1.948
	c-0.001-0.038-0.035-0.07-0.074-0.069l-1.947,0.053c-0.039,0.001-0.072,0.035-0.07,0.073l0.053,1.947
	C342.784,43.423,342.818,43.456,342.857,43.454L342.857,43.454z M342.857,43.454"/>
<path fill="#5C7481" d="M344.702,44.383l0.039,1.464c0.002,0.04,0.035,0.07,0.074,0.069l1.463-0.04
	c0.04-0.001,0.072-0.032,0.07-0.072l-0.039-1.464c-0.002-0.04-0.034-0.07-0.074-0.07l-1.463,0.039
	C344.733,44.311,344.7,44.344,344.702,44.383L344.702,44.383z M344.702,44.383"/>
<path fill="#5C7481" d="M340.188,49.515l-1.025,0.027c-0.039,0.001-0.07,0.034-0.07,0.074l0.026,0.952l-1.423,0.038
	c-0.04,0-0.071,0.035-0.07,0.075l0.041,1.494c0,0.041,0.033,0.072,0.073,0.07l1.495-0.04c0.04-0.001,0.072-0.034,0.07-0.073
	l-0.039-1.423l0.954-0.026c0.04,0,0.071-0.034,0.069-0.074l-0.026-1.025C340.262,49.544,340.229,49.513,340.188,49.515
	L340.188,49.515z M340.188,49.515"/>
<path fill="#5C7481" d="M345.282,48.351l-1.025,0.027c-0.039,0.002-0.07,0.034-0.07,0.074l0.026,0.953l-0.881,0.023l-0.026-0.953
	c0-0.04-0.034-0.071-0.074-0.07l-1.024,0.027c-0.04,0.002-0.071,0.035-0.071,0.075l0.028,1.025c0.001,0.039,0.034,0.07,0.073,0.069
	l0.954-0.025l0.023,0.88l-1.423,0.038c-0.039,0.001-0.07,0.035-0.07,0.074l0.041,1.497c0,0.04,0.034,0.069,0.074,0.069l1.495-0.041
	c0.04,0,0.071-0.034,0.069-0.074l-0.038-1.422l0.952-0.025c0.041-0.001,0.072-0.034,0.071-0.074l-0.026-0.954l0.953-0.025
	c0.041-0.001,0.072-0.034,0.071-0.074l-0.028-1.025C345.356,48.38,345.323,48.35,345.282,48.351L345.282,48.351z M345.282,48.351"/>
<path fill="#5C7481" d="M342.444,44.555l-0.027-1.024c-0.002-0.041-0.035-0.073-0.074-0.072l-1.025,0.028
	c-0.039,0.001-0.071,0.035-0.07,0.075l0.027,1.024c0.002,0.039,0.035,0.071,0.074,0.071l1.025-0.029
	C342.415,44.628,342.445,44.594,342.444,44.555L342.444,44.555z M342.444,44.555"/>
<path fill="#5C7481" d="M342.772,41.337l-0.029-1.026c0-0.039-0.033-0.07-0.073-0.069l-1.025,0.027
	c-0.04,0.002-0.071,0.034-0.07,0.073l0.028,1.026c0,0.039,0.033,0.071,0.074,0.07l1.024-0.028
	C342.741,41.409,342.772,41.376,342.772,41.337L342.772,41.337z M342.772,41.337"/>
<path fill="#5C7481" d="M349.278,45.384c0.039-0.001,0.07-0.034,0.07-0.075l-0.027-1.023c-0.002-0.04-0.035-0.071-0.074-0.07
	l-1.025,0.028c-0.039,0.001-0.071,0.033-0.07,0.073l0.025,0.952l-0.952,0.027c-0.04,0-0.071,0.034-0.071,0.073l0.028,1.025
	c0.001,0.039,0.034,0.073,0.074,0.071l0.953-0.025l0.025,0.952c0.001,0.04,0.034,0.07,0.073,0.069l1.026-0.027
	c0.04-0.001,0.071-0.033,0.069-0.074l-0.027-1.024c-0.001-0.04-0.034-0.072-0.074-0.07l-0.953,0.024l-0.023-0.88L349.278,45.384z
	 M349.278,45.384"/>
</svg>
