<?xml version="1.0" encoding="utf-8"?>
<!-- Generator: Adobe Illustrator 15.1.0, SVG Export Plug-In  -->
<!DOCTYPE svg PUBLIC "-//W3C//DTD SVG 1.1//EN" "http://www.w3.org/Graphics/SVG/1.1/DTD/svg11.dtd" [
	<!ENTITY ns_flows "http://ns.adobe.com/Flows/1.0/">
]>
<svg version="1.1"
	 xmlns="http://www.w3.org/2000/svg" xmlns:xlink="http://www.w3.org/1999/xlink" xmlns:a="http://ns.adobe.com/AdobeSVGViewerExtensions/3.0/"
	 x="0px" y="0px" width="229px" height="87px" viewBox="0 0 229 87" enable-background="new 0 0 229 87" xml:space="preserve">
<defs>
</defs>
<path fill="#5C7481" d="M155.789,82.751h-0.828v-9.953h0.828V82.751z"/>
<path fill="#5C7481" d="M158.693,75.354l0.068,1.224c0.196-0.433,0.457-0.768,0.783-1.005s0.707-0.355,1.145-0.355
	c0.661,0,1.168,0.245,1.521,0.734c0.354,0.49,0.529,1.253,0.529,2.287v4.512h-0.826v-4.505c0-0.843-0.123-1.436-0.369-1.777
	s-0.604-0.513-1.074-0.513c-0.419,0-0.77,0.138-1.053,0.414c-0.282,0.275-0.494,0.644-0.635,1.104v5.277h-0.82v-7.396H158.693z"/>
<path fill="#5C7481" d="M168.14,80.988c0-0.339-0.109-0.631-0.331-0.876s-0.626-0.502-1.214-0.772
	c-0.752-0.31-1.302-0.626-1.65-0.946c-0.349-0.322-0.523-0.742-0.523-1.262c0-0.528,0.208-0.979,0.623-1.354
	c0.414-0.374,0.952-0.561,1.613-0.561c0.701,0,1.258,0.207,1.668,0.622s0.605,0.932,0.588,1.552l-0.014,0.041h-0.773
	c0-0.401-0.132-0.75-0.396-1.046c-0.264-0.296-0.621-0.444-1.072-0.444c-0.461,0-0.812,0.116-1.053,0.349
	c-0.242,0.232-0.363,0.504-0.363,0.813c0,0.328,0.096,0.592,0.287,0.789c0.191,0.199,0.602,0.448,1.23,0.749
	c0.738,0.296,1.29,0.618,1.654,0.968c0.365,0.348,0.547,0.789,0.547,1.322c0,0.588-0.211,1.062-0.632,1.422s-0.979,0.54-1.671,0.54
	c-0.762,0-1.357-0.215-1.788-0.645c-0.431-0.429-0.635-0.939-0.612-1.53l0.014-0.04h0.766c0.027,0.531,0.199,0.917,0.514,1.157
	s0.684,0.36,1.107,0.36c0.46,0,0.822-0.117,1.086-0.351C168.008,81.613,168.14,81.327,168.14,80.988z"/>
<path fill="#5C7481" d="M171.708,73.468v1.887h1.285v0.697h-1.285v4.794c0,0.478,0.068,0.816,0.205,1.017
	c0.137,0.201,0.317,0.301,0.541,0.301c0.109,0,0.216-0.007,0.32-0.021c0.105-0.014,0.224-0.034,0.355-0.062l0.109,0.629
	c-0.109,0.055-0.252,0.1-0.427,0.133c-0.175,0.035-0.353,0.052-0.53,0.052c-0.438,0-0.779-0.164-1.028-0.491
	c-0.249-0.328-0.372-0.848-0.372-1.558v-4.794h-1.025v-0.697h1.025v-1.887H171.708z"/>
<path fill="#5C7481" d="M175.455,73.249h-0.826v-1.162h0.826V73.249z M175.455,82.751h-0.826v-7.396h0.826V82.751z"/>
<path fill="#5C7481" d="M178.607,73.468v1.887h1.285v0.697h-1.285v4.794c0,0.478,0.068,0.816,0.205,1.017
	c0.137,0.201,0.316,0.301,0.539,0.301c0.109,0,0.217-0.007,0.322-0.021c0.104-0.014,0.223-0.034,0.355-0.062l0.109,0.629
	c-0.109,0.055-0.252,0.1-0.428,0.133c-0.176,0.035-0.352,0.052-0.529,0.052c-0.438,0-0.781-0.164-1.029-0.491
	c-0.248-0.328-0.373-0.848-0.373-1.558v-4.794h-1.025v-0.697h1.025v-1.887H178.607z"/>
<path fill="#5C7481" d="M185.421,81.596c-0.195,0.415-0.455,0.735-0.779,0.96c-0.323,0.227-0.701,0.339-1.135,0.339
	c-0.656,0-1.168-0.263-1.534-0.79c-0.366-0.525-0.55-1.345-0.55-2.457v-4.293h0.82v4.307c0,0.897,0.117,1.539,0.352,1.924
	c0.234,0.386,0.575,0.578,1.021,0.578c0.47,0,0.852-0.127,1.146-0.379c0.294-0.254,0.505-0.601,0.632-1.043v-5.387h0.82v7.396
	h-0.738L185.421,81.596z"/>
<path fill="#5C7481" d="M188.976,73.249h-0.826v-1.162h0.826V73.249z M188.976,82.751h-0.826v-7.396h0.826V82.751z"/>
<path fill="#5C7481" d="M193.255,82.197c0.429,0,0.805-0.155,1.129-0.465c0.323-0.311,0.484-0.738,0.484-1.285h0.725l0.021,0.041
	c0.014,0.684-0.217,1.256-0.691,1.716c-0.474,0.46-1.029,0.69-1.668,0.69c-0.852,0-1.507-0.304-1.965-0.913
	c-0.458-0.607-0.688-1.391-0.688-2.348v-1.148c0-0.952,0.229-1.735,0.688-2.348c0.458-0.613,1.113-0.92,1.965-0.92
	c0.688,0,1.258,0.24,1.706,0.721c0.448,0.481,0.667,1.113,0.653,1.897l-0.014,0.034h-0.732c0-0.588-0.153-1.057-0.461-1.404
	c-0.308-0.35-0.691-0.523-1.152-0.523c-0.638,0-1.103,0.241-1.395,0.723c-0.291,0.482-0.438,1.091-0.438,1.826v1.15
	c0,0.745,0.146,1.356,0.438,1.836C192.153,81.958,192.618,82.197,193.255,82.197z M193.441,82.806l-0.063,0.431
	c0.283,0.041,0.512,0.152,0.688,0.335s0.264,0.46,0.264,0.834c0,0.419-0.15,0.753-0.451,1.002c-0.301,0.248-0.728,0.372-1.279,0.372
	l-0.041-0.547c0.314,0,0.578-0.068,0.79-0.205s0.317-0.34,0.317-0.608c0-0.255-0.074-0.434-0.222-0.537
	c-0.147-0.102-0.409-0.172-0.782-0.208l0.164-0.868H193.441z"/>
<path fill="#5C7481" d="M196.755,78.513c0-0.957,0.246-1.745,0.738-2.365s1.153-0.93,1.982-0.93c0.83,0,1.492,0.309,1.986,0.926
	c0.494,0.618,0.742,1.407,0.742,2.369V79.6c0,0.971-0.246,1.763-0.738,2.376c-0.492,0.612-1.153,0.919-1.982,0.919
	c-0.834,0-1.498-0.307-1.99-0.919c-0.492-0.613-0.738-1.405-0.738-2.376V78.513z M201.39,72.478c0,0.405-0.106,0.741-0.32,1.011
	c-0.215,0.269-0.481,0.403-0.801,0.403c-0.277,0-0.563-0.124-0.854-0.373c-0.292-0.248-0.536-0.372-0.732-0.372
	c-0.173,0-0.318,0.08-0.438,0.239c-0.118,0.159-0.178,0.36-0.178,0.602l-0.506-0.124c0-0.4,0.106-0.735,0.318-1.007
	s0.479-0.407,0.803-0.407c0.237,0,0.512,0.128,0.824,0.383s0.566,0.383,0.762,0.383c0.169,0,0.314-0.083,0.435-0.25
	s0.181-0.377,0.181-0.632L201.39,72.478z M197.583,79.607c0,0.74,0.164,1.356,0.492,1.85s0.797,0.74,1.408,0.74
	c0.597,0,1.062-0.248,1.395-0.743c0.332-0.496,0.498-1.111,0.498-1.847v-1.089c0-0.727-0.166-1.337-0.498-1.833
	c-0.333-0.495-0.801-0.743-1.402-0.743c-0.605,0-1.072,0.248-1.4,0.743c-0.328,0.496-0.492,1.106-0.492,1.833V79.607z"/>
<path fill="#5C7481" d="M206.107,82.895c-0.797,0-1.449-0.3-1.955-0.899c-0.506-0.599-0.758-1.363-0.758-2.293v-1.23
	c0-0.935,0.254-1.71,0.762-2.328c0.508-0.617,1.12-0.926,1.836-0.926c0.774,0,1.376,0.276,1.805,0.828
	c0.428,0.552,0.643,1.293,0.643,2.224v0.811h-4.232v0.613c0,0.718,0.172,1.314,0.514,1.79s0.804,0.714,1.387,0.714
	c0.406,0,0.756-0.071,1.05-0.214s0.546-0.345,0.755-0.606l0.336,0.578c-0.224,0.286-0.512,0.514-0.865,0.685
	C207.029,82.81,206.604,82.895,206.107,82.895z M205.992,75.942c-0.516,0-0.938,0.234-1.269,0.704s-0.503,1.048-0.517,1.736h3.412
	v-0.314c0-0.61-0.145-1.118-0.432-1.521C206.9,76.144,206.501,75.942,205.992,75.942z"/>
<path fill="#5C7481" d="M213.429,80.988c0-0.339-0.111-0.631-0.332-0.876s-0.625-0.502-1.213-0.772
	c-0.752-0.31-1.303-0.626-1.651-0.946c-0.349-0.322-0.522-0.742-0.522-1.262c0-0.528,0.207-0.979,0.621-1.354
	c0.415-0.374,0.953-0.561,1.613-0.561c0.702,0,1.258,0.207,1.668,0.622s0.606,0.932,0.588,1.552l-0.014,0.041h-0.771
	c0-0.401-0.133-0.75-0.396-1.046c-0.265-0.296-0.623-0.444-1.074-0.444c-0.46,0-0.811,0.116-1.053,0.349
	c-0.241,0.232-0.361,0.504-0.361,0.813c0,0.328,0.096,0.592,0.287,0.789c0.191,0.199,0.602,0.448,1.23,0.749
	c0.738,0.296,1.289,0.618,1.654,0.968c0.364,0.348,0.547,0.789,0.547,1.322c0,0.588-0.211,1.062-0.633,1.422s-0.979,0.54-1.672,0.54
	c-0.761,0-1.356-0.215-1.787-0.645c-0.431-0.429-0.635-0.939-0.611-1.53l0.014-0.04h0.766c0.027,0.531,0.197,0.917,0.512,1.157
	s0.684,0.36,1.107,0.36c0.461,0,0.823-0.117,1.088-0.351C213.296,81.613,213.429,81.327,213.429,80.988z"/>
<path fill="#5C7481" d="M224.464,53.986c0.1-0.313,0.16-0.643,0.16-0.986V16.681c0-1.726-1.396-3.117-3.117-3.117h-17.351v38.655
	c0,0.621-0.114,1.215-0.312,1.768h-2.034c0.099-0.313,0.158-0.643,0.158-0.986V3.117c0-1.721-1.396-3.117-3.116-3.117h-27.228
	c-1.722,0-3.118,1.396-3.118,3.117V53c0,0.344,0.061,0.674,0.164,0.986h-2.033c-0.197-0.553-0.313-1.146-0.313-1.768V13.564H149.39
	c-1.725,0-3.117,1.391-3.117,3.117V53c0,0.344,0.061,0.674,0.16,0.986h-5.358v6.441h88.333v-6.441H224.464z M155.625,41.255h-4.468
	v-4.466h4.468V41.255z M155.625,33.411h-4.468v-4.471h4.468V33.411z M155.625,25.822h-4.468v-4.467h4.468V25.822z M162.583,41.255
	h-4.467v-4.466h4.467V41.255z M162.583,33.411h-4.467v-4.471h4.467V33.411z M162.583,25.822h-4.467v-4.467h4.467V25.822z
	 M192.176,53.779h-13.121v-16.37h13.121V53.779z M213.612,41.255h-4.468v-4.466h4.468V41.255z M213.612,33.411h-4.468v-4.471h4.468
	V33.411z M213.612,25.822h-4.468v-4.467h4.468V25.822z M220.572,41.255h-4.469v-4.466h4.469V41.255z M220.572,33.411h-4.469v-4.471
	h4.469V33.411z M220.572,25.822h-4.469v-4.467h4.469V25.822z M187.968,9.667h4.208v5.453h-4.208v4.207h-5.453V15.12h-4.214V9.667
	h4.214V5.456h5.453V9.667z M187.968,9.667"/>
<path fill="#5C7481" d="M14.113,79.765l0.021,0.041c-0.009,0.971-0.264,1.712-0.766,2.226c-0.501,0.512-1.192,0.769-2.071,0.769
	c-0.916,0-1.643-0.323-2.181-0.971s-0.807-1.57-0.807-2.769v-2.755c0-1.189,0.27-2.111,0.81-2.765
	c0.54-0.654,1.266-0.981,2.177-0.981c0.889,0,1.582,0.251,2.078,0.752s0.75,1.249,0.759,2.242l-0.021,0.041h-0.759
	c-0.023-0.788-0.205-1.37-0.547-1.747c-0.342-0.375-0.845-0.563-1.511-0.563c-0.684,0-1.217,0.258-1.6,0.773
	s-0.574,1.26-0.574,2.232v2.779c0,0.991,0.191,1.744,0.574,2.26s0.916,0.773,1.6,0.773c0.666,0,1.169-0.185,1.511-0.554
	s0.524-0.964,0.547-1.784H14.113z"/>
<path fill="#5C7481" d="M19.589,82.656c-0.041-0.255-0.072-0.465-0.092-0.629s-0.031-0.33-0.031-0.499
	c-0.223,0.369-0.514,0.673-0.872,0.913c-0.358,0.238-0.755,0.358-1.193,0.358c-0.611,0-1.083-0.19-1.415-0.571
	c-0.333-0.38-0.499-0.894-0.499-1.541c0-0.688,0.242-1.236,0.725-1.645c0.483-0.407,1.137-0.611,1.962-0.611h1.292v-0.909
	c0-0.524-0.132-0.935-0.396-1.23s-0.633-0.444-1.107-0.444c-0.442,0-0.806,0.142-1.09,0.424s-0.427,0.629-0.427,1.039l-0.766-0.007
	l-0.014-0.041c-0.023-0.556,0.188-1.052,0.632-1.487c0.444-0.435,1.013-0.652,1.706-0.652c0.684,0,1.235,0.209,1.654,0.625
	c0.419,0.418,0.629,1.014,0.629,1.788v3.63c0,0.265,0.011,0.52,0.034,0.766s0.064,0.487,0.123,0.725H19.589z M17.504,82.062
	c0.456,0,0.86-0.131,1.213-0.394c0.353-0.262,0.603-0.596,0.749-1.001v-1.6h-1.313c-0.561,0-1.008,0.158-1.343,0.476
	c-0.335,0.316-0.502,0.707-0.502,1.172c0,0.396,0.105,0.72,0.314,0.971S17.125,82.062,17.504,82.062z"/>
<path fill="#5C7481" d="M21.893,79.026c0-1.185,0.208-2.132,0.622-2.841c0.415-0.708,0.996-1.063,1.743-1.063
	c0.406,0,0.76,0.096,1.063,0.287s0.557,0.463,0.762,0.813v-4.231h0.82v10.664h-0.725l-0.068-0.957
	c-0.205,0.355-0.462,0.628-0.772,0.816c-0.31,0.189-0.672,0.284-1.087,0.284c-0.738,0-1.316-0.329-1.733-0.987
	c-0.417-0.659-0.625-1.54-0.625-2.643V79.026z M22.727,79.17c0,0.889,0.14,1.594,0.42,2.115c0.28,0.522,0.708,0.783,1.282,0.783
	c0.401,0,0.737-0.109,1.008-0.328s0.486-0.524,0.646-0.916v-3.623c-0.15-0.396-0.36-0.719-0.629-0.967
	c-0.269-0.249-0.606-0.373-1.012-0.373c-0.579,0-1.009,0.292-1.292,0.875s-0.424,1.347-0.424,2.29V79.17z"/>
<path fill="#5C7481" d="M32.625,82.656c-0.041-0.255-0.072-0.465-0.092-0.629s-0.031-0.33-0.031-0.499
	c-0.223,0.369-0.514,0.673-0.872,0.913c-0.358,0.238-0.755,0.358-1.193,0.358c-0.611,0-1.083-0.19-1.415-0.571
	c-0.333-0.38-0.499-0.894-0.499-1.541c0-0.688,0.242-1.236,0.725-1.645c0.483-0.407,1.137-0.611,1.962-0.611h1.292v-0.909
	c0-0.524-0.132-0.935-0.396-1.23s-0.633-0.444-1.107-0.444c-0.442,0-0.806,0.142-1.09,0.424S29.48,76.9,29.48,77.311l-0.766-0.007
	l-0.014-0.041c-0.023-0.556,0.188-1.052,0.632-1.487c0.444-0.435,1.013-0.652,1.706-0.652c0.684,0,1.235,0.209,1.654,0.625
	c0.419,0.418,0.629,1.014,0.629,1.788v3.63c0,0.265,0.011,0.52,0.034,0.766s0.064,0.487,0.123,0.725H32.625z M30.54,82.062
	c0.456,0,0.86-0.131,1.213-0.394c0.353-0.262,0.603-0.596,0.749-1.001v-1.6h-1.313c-0.561,0-1.008,0.158-1.343,0.476
	c-0.335,0.316-0.502,0.707-0.502,1.172c0,0.396,0.105,0.72,0.314,0.971S30.162,82.062,30.54,82.062z"/>
<path fill="#5C7481" d="M38.75,80.894c0-0.339-0.11-0.631-0.332-0.876s-0.625-0.502-1.213-0.772
	c-0.752-0.31-1.302-0.626-1.651-0.946c-0.349-0.322-0.523-0.742-0.523-1.262c0-0.528,0.208-0.979,0.622-1.354
	s0.953-0.561,1.613-0.561c0.702,0,1.258,0.207,1.668,0.622s0.606,0.932,0.588,1.552l-0.014,0.041h-0.772
	c0-0.401-0.132-0.75-0.396-1.046s-0.622-0.444-1.073-0.444c-0.46,0-0.811,0.116-1.053,0.349s-0.362,0.504-0.362,0.813
	c0,0.328,0.096,0.592,0.287,0.789c0.191,0.199,0.602,0.448,1.23,0.749c0.738,0.296,1.29,0.618,1.654,0.968
	c0.365,0.348,0.547,0.789,0.547,1.322c0,0.588-0.211,1.062-0.632,1.422s-0.979,0.54-1.671,0.54c-0.761,0-1.357-0.215-1.788-0.645
	c-0.431-0.429-0.635-0.939-0.612-1.53l0.014-0.04h0.766c0.027,0.531,0.198,0.917,0.513,1.157s0.684,0.36,1.107,0.36
	c0.46,0,0.823-0.117,1.087-0.351S38.75,81.232,38.75,80.894z"/>
<path fill="#5C7481" d="M42.318,73.373v1.887h1.285v0.697h-1.285v4.794c0,0.478,0.068,0.816,0.205,1.017
	c0.137,0.201,0.317,0.301,0.54,0.301c0.109,0,0.216-0.007,0.321-0.021s0.223-0.034,0.355-0.062l0.109,0.629
	c-0.109,0.055-0.252,0.1-0.427,0.133c-0.175,0.035-0.352,0.052-0.53,0.052c-0.438,0-0.78-0.164-1.029-0.491
	c-0.249-0.328-0.373-0.848-0.373-1.558v-4.794h-1.025V75.26h1.025v-1.887H42.318z"/>
<path fill="#5C7481" d="M48.02,75.998l-0.54-0.041c-0.383,0-0.7,0.129-0.95,0.387c-0.25,0.257-0.435,0.611-0.554,1.063v5.25h-0.82
	V75.26h0.725l0.096,1.224c0.173-0.429,0.402-0.763,0.687-1.001c0.285-0.24,0.619-0.359,1.001-0.359c0.086,0,0.173,0.008,0.26,0.023
	c0.086,0.017,0.155,0.033,0.205,0.052L48.02,75.998z"/>
<path fill="#5C7481" d="M48.785,78.418c0-0.957,0.246-1.745,0.738-2.365s1.153-0.93,1.982-0.93s1.491,0.309,1.986,0.926
	c0.495,0.618,0.742,1.407,0.742,2.369v1.087c0,0.971-0.246,1.763-0.738,2.376c-0.492,0.612-1.153,0.919-1.982,0.919
	c-0.834,0-1.497-0.307-1.989-0.919c-0.492-0.613-0.738-1.405-0.738-2.376V78.418z M49.612,79.513c0,0.74,0.164,1.356,0.492,1.85
	s0.797,0.74,1.408,0.74c0.597,0,1.062-0.248,1.395-0.743c0.333-0.496,0.499-1.111,0.499-1.847v-1.089
	c0-0.727-0.167-1.337-0.499-1.833c-0.333-0.495-0.8-0.743-1.401-0.743c-0.606,0-1.073,0.248-1.401,0.743
	c-0.328,0.496-0.492,1.106-0.492,1.833V79.513z"/>
<path fill="#5C7481" d="M64.313,43.57c0,3.982-3.23,7.213-7.214,7.213H40.712v4.028h8.274c1.494,0,2.704,1.21,2.704,2.703
	c0,1.496-1.21,2.705-2.704,2.705H15.328c-1.495,0-2.706-1.209-2.706-2.705c0-1.493,1.21-2.703,2.706-2.703h8.273v-4.028H7.213
	C3.229,50.783,0,47.553,0,43.57V10.213C0,6.229,3.229,3,7.213,3h49.886c3.983,0,7.214,3.229,7.214,7.213V43.57z M64.313,43.57"/>
<path fill="#F9F9F9" d="M57.099,9.311H7.213c-0.499,0-0.901,0.405-0.901,0.902V43.57c0,0.499,0.402,0.902,0.901,0.902h49.886
	c0.498,0,0.902-0.403,0.902-0.902V10.213C58.001,9.716,57.597,9.311,57.099,9.311L57.099,9.311z M57.099,9.311"/>
<g opacity="0.8">
	<g>
		<path fill="#434A54" d="M86.556,29.071c2.693-0.675,5.386-1.03,8.079-1.287c2.693-0.271,5.386-0.363,8.079-0.398
			c2.693-0.021,5.386,0.07,8.079,0.248c2.693,0.229,5.386,0.519,8.08,1.057v0.59l-16.159,0.085l-16.158-0.095V29.071z"/>
		<g>
			<path fill="#434A54" d="M109.896,36.215c-0.231,0-0.457-0.114-0.591-0.324c-0.208-0.326-0.111-0.759,0.215-0.966l9.033-5.753
				l-9.033-5.753c-0.326-0.208-0.422-0.641-0.215-0.966c0.208-0.326,0.644-0.419,0.967-0.214l9.961,6.344
				c0.201,0.128,0.324,0.351,0.324,0.59s-0.123,0.462-0.324,0.59l-9.961,6.344C110.155,36.18,110.024,36.215,109.896,36.215
				C109.665,36.215,110.024,36.215,109.896,36.215z"/>
		</g>
	</g>
</g>
</svg>
