<?xml version="1.0" encoding="utf-8"?>
<!-- Generator: Adobe Illustrator 15.1.0, SVG Export Plug-In  -->
<!DOCTYPE svg PUBLIC "-//W3C//DTD SVG 1.1//EN" "http://www.w3.org/Graphics/SVG/1.1/DTD/svg11.dtd" [
	<!ENTITY ns_flows "http://ns.adobe.com/Flows/1.0/">
]>
<svg version="1.1"
	 xmlns="http://www.w3.org/2000/svg" xmlns:xlink="http://www.w3.org/1999/xlink" xmlns:a="http://ns.adobe.com/AdobeSVGViewerExtensions/3.0/"
	 x="0px" y="0px" width="352px" height="93px" viewBox="-1.121 0 352 93" enable-background="new -1.121 0 352 93"
	 xml:space="preserve">
<defs>
</defs>
<path fill="#5C7481" d="M168.651,84.965c0-0.545-0.158-0.987-0.475-1.327c-0.317-0.341-0.874-0.642-1.671-0.902
	c-0.907-0.278-1.594-0.637-2.061-1.076c-0.467-0.44-0.701-1.029-0.701-1.768c0-0.761,0.261-1.383,0.783-1.866
	s1.195-0.725,2.02-0.725c0.866,0,1.562,0.285,2.088,0.854s0.783,1.265,0.769,2.085l-0.021,0.041h-0.772
	c0-0.661-0.184-1.202-0.55-1.624c-0.367-0.421-0.872-0.632-1.514-0.632c-0.625,0-1.11,0.176-1.456,0.526s-0.52,0.791-0.52,1.319
	c0,0.492,0.167,0.905,0.502,1.241c0.335,0.334,0.903,0.627,1.706,0.878c0.884,0.273,1.555,0.644,2.013,1.11
	c0.458,0.468,0.687,1.082,0.687,1.843c0,0.798-0.27,1.43-0.81,1.897c-0.54,0.467-1.234,0.7-2.082,0.7
	c-0.834,0-1.56-0.251-2.177-0.752s-0.915-1.229-0.892-2.181l0.014-0.041h0.766c0,0.779,0.225,1.354,0.673,1.723
	s0.988,0.554,1.617,0.554c0.62,0,1.119-0.172,1.497-0.515S168.651,85.531,168.651,84.965z"/>
<path fill="#5C7481" d="M170.62,83.159c0-0.957,0.246-1.745,0.738-2.365s1.153-0.93,1.982-0.93s1.491,0.309,1.986,0.926
	c0.495,0.618,0.742,1.407,0.742,2.369v1.087c0,0.971-0.246,1.763-0.738,2.376c-0.492,0.612-1.153,0.919-1.982,0.919
	c-0.834,0-1.497-0.307-1.989-0.919c-0.492-0.613-0.738-1.405-0.738-2.376V83.159z M171.447,84.254c0,0.74,0.164,1.356,0.492,1.85
	s0.797,0.74,1.408,0.74c0.597,0,1.062-0.248,1.395-0.743c0.333-0.496,0.499-1.111,0.499-1.847v-1.089
	c0-0.727-0.167-1.337-0.499-1.833c-0.333-0.495-0.8-0.743-1.401-0.743c-0.606,0-1.073,0.248-1.401,0.743
	c-0.328,0.496-0.492,1.106-0.492,1.833V84.254z"/>
<path fill="#5C7481" d="M180.451,80.739l-0.541-0.041c-0.383,0-0.699,0.129-0.949,0.387c-0.251,0.257-0.436,0.611-0.555,1.063v5.25
	h-0.82v-7.396h0.725l0.096,1.224c0.174-0.429,0.402-0.763,0.688-1.001c0.285-0.24,0.619-0.359,1.002-0.359
	c0.086,0,0.173,0.008,0.26,0.023c0.086,0.017,0.154,0.033,0.205,0.052L180.451,80.739z"/>
<path fill="#5C7481" d="M183.123,78.114v1.887h1.285v0.697h-1.285v4.794c0,0.478,0.068,0.816,0.205,1.017
	c0.137,0.201,0.317,0.301,0.541,0.301c0.109,0,0.216-0.007,0.32-0.021c0.105-0.014,0.224-0.034,0.355-0.062l0.109,0.629
	c-0.109,0.055-0.252,0.1-0.427,0.133c-0.175,0.035-0.353,0.052-0.53,0.052c-0.438,0-0.779-0.164-1.028-0.491
	c-0.249-0.328-0.372-0.848-0.372-1.558v-4.794h-1.025v-0.697h1.025v-1.887H183.123z"/>
<path fill="#5C7481" d="M188.345,87.541c-0.797,0-1.449-0.3-1.955-0.899c-0.506-0.599-0.758-1.363-0.758-2.293v-1.23
	c0-0.935,0.254-1.71,0.762-2.328c0.508-0.617,1.12-0.926,1.836-0.926c0.774,0,1.376,0.276,1.805,0.828
	c0.428,0.552,0.643,1.293,0.643,2.224v0.811h-4.232v0.613c0,0.718,0.172,1.314,0.514,1.79s0.804,0.714,1.387,0.714
	c0.406,0,0.756-0.071,1.05-0.214s0.546-0.345,0.755-0.606l0.336,0.578c-0.224,0.286-0.512,0.514-0.865,0.685
	C189.267,87.456,188.842,87.541,188.345,87.541z M188.23,80.589c-0.516,0-0.938,0.234-1.269,0.704s-0.503,1.048-0.517,1.736h3.412
	v-0.314c0-0.61-0.145-1.118-0.432-1.521C189.138,80.79,188.74,80.589,188.23,80.589z"/>
<path fill="#5C7481" d="M193.021,77.896h-0.826v-1.162h0.826V77.896z M193.021,87.397h-0.826v-7.396h0.826V87.397z"/>
<path fill="#5C7481" d="M194.621,83.159c0-0.957,0.246-1.745,0.738-2.365s1.153-0.93,1.982-0.93c0.83,0,1.492,0.309,1.986,0.926
	c0.494,0.618,0.742,1.407,0.742,2.369v1.087c0,0.971-0.246,1.763-0.738,2.376c-0.492,0.612-1.153,0.919-1.982,0.919
	c-0.834,0-1.498-0.307-1.99-0.919c-0.492-0.613-0.738-1.405-0.738-2.376V83.159z M195.449,84.254c0,0.74,0.164,1.356,0.492,1.85
	s0.797,0.74,1.408,0.74c0.597,0,1.062-0.248,1.395-0.743c0.332-0.496,0.498-1.111,0.498-1.847v-1.089
	c0-0.727-0.166-1.337-0.498-1.833c-0.333-0.495-0.801-0.743-1.402-0.743c-0.605,0-1.072,0.248-1.4,0.743
	c-0.328,0.496-0.492,1.106-0.492,1.833V84.254z"/>
<path fill="#5C7481" d="M205.142,85.635c0-0.339-0.111-0.631-0.332-0.876s-0.625-0.502-1.213-0.772
	c-0.752-0.31-1.303-0.626-1.651-0.946c-0.349-0.322-0.522-0.742-0.522-1.262c0-0.528,0.207-0.979,0.621-1.354
	c0.415-0.374,0.953-0.561,1.613-0.561c0.702,0,1.258,0.207,1.668,0.622s0.606,0.932,0.588,1.552l-0.014,0.041h-0.771
	c0-0.401-0.133-0.75-0.396-1.046c-0.265-0.296-0.623-0.444-1.074-0.444c-0.46,0-0.811,0.116-1.053,0.349
	c-0.241,0.232-0.361,0.504-0.361,0.813c0,0.328,0.096,0.592,0.287,0.789c0.191,0.199,0.602,0.448,1.23,0.749
	c0.738,0.296,1.289,0.618,1.654,0.968c0.364,0.348,0.547,0.789,0.547,1.322c0,0.588-0.211,1.062-0.633,1.422s-0.979,0.54-1.672,0.54
	c-0.761,0-1.356-0.215-1.787-0.645c-0.431-0.429-0.635-0.939-0.611-1.53l0.014-0.04h0.766c0.027,0.531,0.197,0.917,0.512,1.157
	s0.684,0.36,1.107,0.36c0.461,0,0.823-0.117,1.088-0.351C205.009,86.26,205.142,85.974,205.142,85.635z"/>
<path fill="#5C7481" d="M197.457,6.925h-1.467c-0.523,0-0.992,0.329-1.166,0.824c-0.354,0.989-1.287,1.654-2.324,1.654
	c-1.038,0-1.972-0.665-2.323-1.654c-0.174-0.495-0.644-0.824-1.168-0.824h-5.414c-0.524,0-0.99,0.329-1.167,0.824
	c-0.354,0.989-1.287,1.654-2.324,1.654s-1.971-0.665-2.322-1.654c-0.174-0.495-0.644-0.824-1.168-0.824h-5.414
	c-0.524,0-0.994,0.329-1.168,0.824c-0.352,0.989-1.285,1.654-2.323,1.654s-1.971-0.665-2.323-1.654
	c-0.174-0.495-0.643-0.824-1.168-0.824h-1.467c-2.736,0-4.957,2.223-4.957,4.957v49.584c0,2.734,2.221,4.959,4.957,4.959h1.467
	c0.525,0,0.994-0.33,1.168-0.824c0.353-0.99,1.285-1.656,2.323-1.656s1.972,0.666,2.323,1.656c0.178,0.494,0.644,0.824,1.168,0.824
	h5.414c0.524,0,0.994-0.33,1.168-0.824c0.352-0.99,1.285-1.656,2.322-1.656s1.971,0.666,2.324,1.656
	c0.177,0.494,0.643,0.824,1.167,0.824h5.414c0.524,0,0.994-0.33,1.168-0.824c0.352-0.99,1.285-1.656,2.323-1.656
	c1.037,0,1.971,0.666,2.324,1.656c0.176,0.494,0.643,0.824,1.166,0.824h1.467c2.736,0,4.961-2.225,4.961-4.961V11.882
	C202.417,9.148,200.193,6.925,197.457,6.925L197.457,6.925z M181.341,51.549h-14.872c-0.687,0-1.241-0.553-1.241-1.238
	c0-0.684,0.555-1.24,1.241-1.24h14.872c0.687,0,1.242,0.557,1.242,1.24C182.583,50.996,182.028,51.549,181.341,51.549
	L181.341,51.549z M181.341,44.111h-14.872c-0.687,0-1.241-0.553-1.241-1.239c0-0.685,0.555-1.237,1.241-1.237h14.872
	c0.687,0,1.242,0.553,1.242,1.237C182.583,43.558,182.028,44.111,181.341,44.111L181.341,44.111z M193.738,36.675h-27.269
	c-0.687,0-1.241-0.556-1.241-1.24s0.555-1.239,1.241-1.239h27.269c0.686,0,1.242,0.555,1.242,1.239S194.423,36.675,193.738,36.675
	L193.738,36.675z M193.738,29.239h-27.269c-0.687,0-1.241-0.557-1.241-1.243c0-0.685,0.555-1.237,1.241-1.237h27.269
	c0.686,0,1.242,0.553,1.242,1.237C194.98,28.682,194.423,29.239,193.738,29.239L193.738,29.239z M193.738,21.799h-27.269
	c-0.687,0-1.241-0.552-1.241-1.239c0-0.685,0.555-1.241,1.241-1.241h27.269c0.686,0,1.242,0.557,1.242,1.241
	C194.98,21.248,194.423,21.799,193.738,21.799L193.738,21.799z"/>
<path fill-rule="evenodd" clip-rule="evenodd" fill="#5C7481" stroke="#F9F9F9" stroke-miterlimit="10" d="M183.66,54.563
	c0-8.15,6.628-14.777,14.775-14.777c8.148,0,14.777,6.627,14.777,14.777c0,8.146-6.629,14.773-14.777,14.773
	C190.288,69.336,183.66,62.709,183.66,54.563"/>
<path fill="#F9F9F9" d="M203.558,47.959h0.637v-1.535h-11.518v1.535h0.637v0.398c0,2.5,0.854,4.791,2.264,6.15
	c-1.409,1.361-2.264,3.652-2.264,6.152v0.5h-0.637v1.535h11.518V61.16h-0.637v-0.5c0-2.5-0.854-4.791-2.264-6.152
	c1.409-1.359,2.264-3.65,2.264-6.15V47.959z M200.22,54.107l-0.527,0.4l0.527,0.4c1.318,1.002,2.204,3.025,2.32,5.25h-8.209
	c0.115-2.225,1-4.248,2.32-5.25l0.525-0.4l-0.525-0.4c-1.32-0.998-2.205-3.023-2.32-5.248h8.209
	C202.424,51.084,201.539,53.109,200.22,54.107L200.22,54.107z M195.389,49.658h6.093c-0.088,1.689-0.759,3.225-1.762,3.984
	c0,0-0.171,0.074-0.4,0.305c-0.475,0.676-0.5,3.15-0.5,3.26c0.34,0.037,0.708,0.178,1.072,0.51c1.285,1.176,1.657,1.314,1.703,2.168
	h-6.026c0.044-0.854,0.774-1.463,1.703-2.168c0,0,0.44-0.385,1.059-0.49c-0.011-0.021-0.017-0.035-0.017-0.035
	c0-2.33-0.764-3.328-0.764-3.328l-0.539-0.305C196.009,52.801,195.477,51.348,195.389,49.658L195.389,49.658z M195.389,49.658"/>
<g opacity="0.8">
	<g>
		<path fill="#5C7481" d="M101.381,35.732c2.693-0.675,5.386-1.031,8.079-1.287c2.693-0.271,5.386-0.363,8.079-0.398
			c2.693-0.021,5.386,0.07,8.079,0.248c2.693,0.229,5.386,0.519,8.08,1.057v0.59l-16.159,0.085l-16.158-0.095V35.732z"/>
		<g>
			<path fill="#5C7481" d="M124.721,42.876c-0.231,0-0.457-0.115-0.591-0.324c-0.208-0.325-0.111-0.759,0.215-0.967l9.034-5.753
				l-9.034-5.753c-0.326-0.208-0.422-0.642-0.215-0.967c0.208-0.325,0.644-0.42,0.967-0.215l9.96,6.344
				c0.202,0.129,0.324,0.352,0.324,0.591s-0.123,0.462-0.324,0.591l-9.96,6.344C124.98,42.84,124.85,42.876,124.721,42.876
				C124.49,42.876,124.85,42.876,124.721,42.876z"/>
		</g>
	</g>
</g>
<g opacity="0.8">
	<g>
		<path fill="#5C7481" d="M243,35.623c2.692-0.675,5.386-1.031,8.079-1.287c2.693-0.271,5.387-0.363,8.079-0.398
			c2.693-0.021,5.386,0.07,8.079,0.248c2.693,0.229,5.387,0.519,8.08,1.057v0.59l-16.159,0.085L243,35.823V35.623z"/>
		<g>
			<path fill="#5C7481" d="M266.34,42.767c-0.231,0-0.457-0.115-0.591-0.324c-0.208-0.325-0.111-0.759,0.215-0.967l9.033-5.753
				l-9.033-5.753c-0.326-0.208-0.423-0.642-0.215-0.967c0.207-0.325,0.643-0.42,0.967-0.215l9.96,6.344
				c0.202,0.129,0.324,0.352,0.324,0.591s-0.122,0.462-0.324,0.591l-9.96,6.344C266.599,42.731,266.469,42.767,266.34,42.767
				C266.109,42.767,266.469,42.767,266.34,42.767z"/>
		</g>
	</g>
</g>
<g opacity="0.8">
	<g>
		<path fill="#5C7481" d="M308.394,38.623c2.693-0.675,5.387-1.031,8.079-1.287c2.693-0.271,5.386-0.363,8.079-0.398
			c2.693-0.021,5.387,0.07,8.079,0.248c2.693,0.229,5.387,0.519,8.079,1.057v0.59l-16.158,0.085l-16.158-0.095V38.623z"/>
		<g>
			<path fill="#5C7481" d="M331.734,45.767c-0.23,0-0.457-0.115-0.591-0.324c-0.208-0.325-0.111-0.759,0.214-0.967l9.034-5.753
				l-9.034-5.753c-0.325-0.208-0.422-0.642-0.214-0.967s0.643-0.42,0.966-0.215l9.961,6.344c0.202,0.129,0.324,0.352,0.324,0.591
				s-0.122,0.462-0.324,0.591l-9.961,6.344C331.994,45.731,331.863,45.767,331.734,45.767
				C331.503,45.767,331.863,45.767,331.734,45.767z"/>
		</g>
	</g>
</g>
<path fill="#5C7481" d="M0,89.025v-9.953h2.44c1.035,0,1.88,0.405,2.536,1.217s0.984,1.853,0.984,3.124v1.285
	c0,1.276-0.328,2.316-0.984,3.12c-0.656,0.805-1.501,1.207-2.536,1.207H0z M0.82,79.797v8.531h1.62c0.802,0,1.453-0.34,1.952-1.021
	c0.499-0.68,0.749-1.547,0.749-2.602v-1.308c0-1.045-0.25-1.907-0.749-2.585s-1.149-1.017-1.952-1.017H0.82z"/>
<path fill="#5C7481" d="M7.219,84.787c0-0.957,0.246-1.745,0.738-2.365s1.153-0.93,1.982-0.93s1.491,0.309,1.986,0.926
	c0.495,0.618,0.742,1.407,0.742,2.369v1.087c0,0.971-0.246,1.763-0.738,2.376c-0.492,0.612-1.153,0.919-1.982,0.919
	c-0.834,0-1.497-0.307-1.989-0.919c-0.492-0.613-0.738-1.405-0.738-2.376V84.787z M8.046,85.882c0,0.74,0.164,1.356,0.492,1.85
	s0.797,0.74,1.408,0.74c0.597,0,1.062-0.248,1.395-0.743c0.333-0.496,0.499-1.111,0.499-1.847v-1.089
	c0-0.727-0.167-1.337-0.499-1.833c-0.333-0.495-0.8-0.743-1.401-0.743c-0.606,0-1.073,0.248-1.401,0.743
	c-0.328,0.496-0.492,1.106-0.492,1.833V85.882z"/>
<path fill="#5C7481" d="M16.522,88.472c0.428,0,0.804-0.155,1.128-0.465c0.324-0.311,0.485-0.738,0.485-1.285h0.725l0.021,0.041
	c0.014,0.684-0.216,1.256-0.69,1.716s-1.03,0.69-1.668,0.69c-0.852,0-1.507-0.304-1.965-0.913c-0.458-0.607-0.687-1.391-0.687-2.348
	V84.76c0-0.952,0.229-1.735,0.687-2.348c0.458-0.613,1.113-0.92,1.965-0.92c0.688,0,1.257,0.24,1.706,0.721
	c0.449,0.481,0.667,1.113,0.653,1.897l-0.014,0.034h-0.731c0-0.588-0.154-1.057-0.461-1.404c-0.308-0.35-0.691-0.523-1.152-0.523
	c-0.638,0-1.103,0.241-1.395,0.723c-0.292,0.482-0.438,1.091-0.438,1.826v1.15c0,0.745,0.146,1.356,0.438,1.836
	C15.419,88.232,15.884,88.472,16.522,88.472z"/>
<path fill="#5C7481" d="M24.343,87.87c-0.196,0.415-0.456,0.735-0.779,0.96c-0.324,0.227-0.702,0.339-1.135,0.339
	c-0.656,0-1.168-0.263-1.535-0.79c-0.367-0.525-0.55-1.345-0.55-2.457v-4.293h0.82v4.307c0,0.897,0.117,1.539,0.352,1.924
	c0.235,0.386,0.575,0.578,1.022,0.578c0.469,0,0.851-0.127,1.145-0.379c0.294-0.254,0.505-0.601,0.632-1.043v-5.387h0.82v7.396
	h-0.738L24.343,87.87z"/>
<path fill="#5C7481" d="M27.692,81.629l0.068,1.148c0.196-0.41,0.456-0.727,0.779-0.95s0.704-0.335,1.142-0.335
	c0.447,0,0.823,0.131,1.128,0.393c0.305,0.263,0.529,0.66,0.67,1.193c0.182-0.492,0.441-0.88,0.776-1.162s0.739-0.424,1.213-0.424
	c0.647,0,1.149,0.264,1.507,0.789c0.358,0.527,0.537,1.335,0.537,2.424v4.32h-0.827v-4.334c0-0.907-0.123-1.545-0.369-1.914
	s-0.597-0.554-1.053-0.554c-0.479,0-0.852,0.205-1.121,0.615s-0.433,0.925-0.492,1.545v0.191v4.45h-0.82v-4.327
	c0-0.889-0.126-1.522-0.379-1.9s-0.605-0.567-1.056-0.567c-0.433,0-0.78,0.131-1.042,0.393c-0.262,0.263-0.45,0.621-0.564,1.077
	v5.325h-0.82v-7.396H27.692z"/>
<path fill="#5C7481" d="M39.73,89.169c-0.797,0-1.449-0.3-1.955-0.899c-0.506-0.599-0.759-1.363-0.759-2.293v-1.23
	c0-0.935,0.254-1.71,0.762-2.328c0.508-0.617,1.12-0.926,1.835-0.926c0.775,0,1.376,0.276,1.805,0.828s0.643,1.293,0.643,2.224
	v0.811H37.83v0.613c0,0.718,0.171,1.314,0.513,1.79s0.804,0.714,1.388,0.714c0.406,0,0.755-0.071,1.049-0.214
	s0.546-0.345,0.755-0.606l0.335,0.578c-0.223,0.286-0.512,0.514-0.865,0.685C40.652,89.084,40.227,89.169,39.73,89.169z
	 M39.614,82.217c-0.515,0-0.938,0.234-1.268,0.704s-0.502,1.048-0.516,1.736h3.411v-0.314c0-0.61-0.144-1.118-0.431-1.521
	C40.523,82.418,40.125,82.217,39.614,82.217z"/>
<path fill="#5C7481" d="M44.229,81.629l0.068,1.224c0.196-0.433,0.457-0.768,0.783-1.005s0.708-0.355,1.145-0.355
	c0.661,0,1.168,0.245,1.521,0.734c0.353,0.49,0.53,1.253,0.53,2.287v4.512h-0.827v-4.505c0-0.843-0.123-1.436-0.369-1.777
	s-0.604-0.513-1.073-0.513c-0.419,0-0.77,0.138-1.053,0.414c-0.283,0.275-0.495,0.644-0.636,1.104v5.277h-0.82v-7.396H44.229z"/>
<path fill="#5C7481" d="M51.331,79.742v1.887h1.285v0.697h-1.285v4.794c0,0.478,0.068,0.816,0.205,1.017
	c0.137,0.201,0.317,0.301,0.54,0.301c0.109,0,0.216-0.007,0.321-0.021s0.223-0.034,0.355-0.062l0.109,0.629
	c-0.109,0.055-0.252,0.1-0.427,0.133c-0.175,0.035-0.352,0.052-0.53,0.052c-0.438,0-0.78-0.164-1.029-0.491
	c-0.249-0.328-0.373-0.848-0.373-1.558v-4.794h-1.025v-0.697h1.025v-1.887H51.331z"/>
<path fill="#5C7481" d="M53.689,84.787c0-0.957,0.246-1.745,0.738-2.365s1.153-0.93,1.982-0.93s1.491,0.309,1.986,0.926
	c0.495,0.618,0.742,1.407,0.742,2.369v1.087c0,0.971-0.246,1.763-0.738,2.376c-0.492,0.612-1.153,0.919-1.982,0.919
	c-0.834,0-1.497-0.307-1.989-0.919c-0.492-0.613-0.738-1.405-0.738-2.376V84.787z M54.517,85.882c0,0.74,0.164,1.356,0.492,1.85
	s0.797,0.74,1.408,0.74c0.597,0,1.062-0.248,1.395-0.743c0.333-0.496,0.499-1.111,0.499-1.847v-1.089
	c0-0.727-0.167-1.337-0.499-1.833c-0.333-0.495-0.8-0.743-1.401-0.743c-0.606,0-1.073,0.248-1.401,0.743
	c-0.328,0.496-0.492,1.106-0.492,1.833V85.882z"/>
<path fill="#5C7481" d="M63.991,89.025v-6.699h-1.005v-0.697h1.005v-0.93c0-0.788,0.187-1.399,0.561-1.832s0.891-0.649,1.552-0.649
	c0.255,0,0.513,0.035,0.772,0.106c0.26,0.07,0.529,0.172,0.807,0.304l-0.137,0.718c-0.209-0.109-0.425-0.196-0.646-0.26
	s-0.466-0.096-0.735-0.096c-0.46,0-0.801,0.145-1.022,0.434c-0.221,0.29-0.332,0.715-0.332,1.275v0.93h1.36v0.697h-1.36v6.699
	H63.991z M68.113,89.025h-0.827v-7.396h0.827V89.025z"/>
<path fill="#5C7481" d="M73.609,87.263c0-0.339-0.11-0.631-0.332-0.876s-0.625-0.502-1.213-0.772
	c-0.752-0.31-1.302-0.626-1.651-0.946c-0.349-0.322-0.523-0.742-0.523-1.262c0-0.528,0.208-0.979,0.622-1.354
	s0.953-0.561,1.613-0.561c0.702,0,1.258,0.207,1.668,0.622s0.606,0.932,0.588,1.552l-0.014,0.041h-0.772
	c0-0.401-0.132-0.75-0.396-1.046s-0.622-0.444-1.073-0.444c-0.46,0-0.811,0.116-1.053,0.349s-0.362,0.504-0.362,0.813
	c0,0.328,0.096,0.592,0.287,0.789c0.191,0.199,0.602,0.448,1.23,0.749c0.738,0.296,1.29,0.618,1.654,0.968
	c0.365,0.348,0.547,0.789,0.547,1.322c0,0.588-0.211,1.062-0.632,1.422s-0.979,0.54-1.671,0.54c-0.761,0-1.357-0.215-1.788-0.645
	c-0.431-0.429-0.635-0.939-0.612-1.53l0.014-0.04h0.766c0.027,0.531,0.198,0.917,0.513,1.157s0.684,0.36,1.107,0.36
	c0.46,0,0.823-0.117,1.087-0.351S73.609,87.602,73.609,87.263z"/>
<path fill="#5C7481" d="M78.306,88.472c0.428,0,0.804-0.155,1.128-0.465c0.324-0.311,0.485-0.738,0.485-1.285h0.725l0.021,0.041
	c0.014,0.684-0.216,1.256-0.69,1.716s-1.03,0.69-1.668,0.69c-0.852,0-1.507-0.304-1.965-0.913c-0.458-0.607-0.687-1.391-0.687-2.348
	V84.76c0-0.952,0.229-1.735,0.687-2.348c0.458-0.613,1.113-0.92,1.965-0.92c0.688,0,1.257,0.24,1.706,0.721
	c0.449,0.481,0.667,1.113,0.653,1.897l-0.014,0.034h-0.731c0-0.588-0.154-1.057-0.461-1.404c-0.308-0.35-0.691-0.523-1.152-0.523
	c-0.638,0-1.103,0.241-1.395,0.723c-0.292,0.482-0.438,1.091-0.438,1.826v1.15c0,0.745,0.146,1.356,0.438,1.836
	C77.203,88.232,77.667,88.472,78.306,88.472z"/>
<path fill="#5C7481" d="M85.989,89.025c-0.041-0.255-0.072-0.465-0.092-0.629s-0.031-0.33-0.031-0.499
	c-0.223,0.369-0.514,0.673-0.872,0.913c-0.358,0.238-0.755,0.358-1.193,0.358c-0.611,0-1.083-0.19-1.415-0.571
	c-0.333-0.38-0.499-0.894-0.499-1.541c0-0.688,0.242-1.236,0.725-1.645c0.483-0.407,1.137-0.611,1.962-0.611h1.292v-0.909
	c0-0.524-0.132-0.935-0.396-1.23s-0.633-0.444-1.107-0.444c-0.442,0-0.806,0.142-1.09,0.424s-0.427,0.629-0.427,1.039l-0.766-0.007
	l-0.014-0.041c-0.023-0.556,0.188-1.052,0.632-1.487c0.444-0.435,1.013-0.652,1.706-0.652c0.684,0,1.235,0.209,1.654,0.625
	c0.419,0.418,0.629,1.014,0.629,1.788v3.63c0,0.265,0.011,0.52,0.034,0.766s0.064,0.487,0.123,0.725H85.989z M83.904,88.431
	c0.456,0,0.86-0.131,1.213-0.394c0.353-0.262,0.603-0.596,0.749-1.001v-1.6h-1.313c-0.561,0-1.008,0.158-1.343,0.476
	c-0.335,0.316-0.502,0.707-0.502,1.172c0,0.396,0.105,0.72,0.314,0.971S83.526,88.431,83.904,88.431z"/>
<path fill="#5C7481" d="M89.469,89.025h-0.827V78.361h0.827V89.025z"/>
<path fill="#7595AE" d="M14.59,52.043c-0.14,0.027-0.249,0.058-0.306,0.091c-0.107,0.063-0.159,0.16-0.159,0.287
	c0,0.114,0.032,0.197,0.095,0.248c0.064,0.05,0.141,0.083,0.235,0.083c0.146,0,0.281-0.044,0.408-0.134
	c0.123-0.083,0.187-0.237,0.192-0.466v-0.249c-0.046,0.026-0.083,0.052-0.127,0.063c-0.046,0.021-0.109,0.035-0.187,0.048
	L14.59,52.043z M14.59,52.043"/>
<path fill="#7595AE" d="M25.85,40.888l-0.975,1.681h0.975V40.888z M25.85,40.888"/>
<path fill="#7595AE" d="M29.932,52.043c-0.147,0.027-0.249,0.058-0.313,0.091c-0.108,0.063-0.158,0.16-0.158,0.287
	c0,0.114,0.031,0.197,0.094,0.248c0.064,0.05,0.146,0.083,0.237,0.083c0.15,0,0.284-0.044,0.407-0.134
	c0.127-0.083,0.19-0.237,0.196-0.466v-0.249c-0.044,0.026-0.089,0.052-0.133,0.063c-0.045,0.021-0.103,0.035-0.179,0.048
	L29.932,52.043z M29.932,52.043"/>
<path fill="#7595AE" d="M21.691,51.071c-0.173,0-0.307,0.043-0.401,0.144c-0.097,0.098-0.153,0.23-0.178,0.396h1.158
	c-0.004-0.18-0.07-0.313-0.177-0.407C21.985,51.114,21.85,51.071,21.691,51.071L21.691,51.071z M21.691,51.071"/>
<path fill="#7595AE" d="M32.244,43.293c0.094-0.125,0.145-0.293,0.145-0.497c0-0.228-0.057-0.407-0.165-0.527
	c-0.113-0.12-0.247-0.178-0.414-0.178c-0.127,0-0.241,0.037-0.344,0.121c-0.153,0.113-0.23,0.3-0.23,0.561
	c0,0.21,0.059,0.381,0.173,0.514c0.115,0.134,0.255,0.204,0.433,0.204C32.007,43.484,32.141,43.42,32.244,43.293L32.244,43.293z
	 M32.244,43.293"/>
<path fill="#7595AE" d="M10.33,43.484c0.229,0,0.376-0.119,0.447-0.355c0.076-0.242,0.107-0.587,0.107-1.032
	c0-0.471-0.031-0.821-0.107-1.052c-0.07-0.223-0.218-0.338-0.447-0.338c-0.229,0-0.383,0.115-0.452,0.338
	c-0.077,0.23-0.109,0.581-0.109,1.052c0,0.445,0.032,0.79,0.109,1.032C9.955,43.365,10.101,43.484,10.33,43.484L10.33,43.484z
	 M10.33,43.484"/>
<path fill="#5C7481" d="M79,5.816h-4.458l-1.401,1.401L71.74,5.816h-3.719L66.62,7.218l-1.4-1.401h-3.72l-1.4,1.401l-1.401-1.401
	h-3.72l-1.4,1.401l-1.401-1.401h-3.72l-1.401,1.401l-1.4-1.401h-4.102l-0.249,0.617c-0.026,0.082-1.033,2.707-2.038,7.438H7.934
	c-2.604,0-4.725,2.146-4.725,4.789v35.262c0,2.644,2.121,4.788,4.725,4.788H39.65c0.465,2.3,1,4.649,1.617,7.063l0.191,0.732h4.051
	l1.547-1.547l1.554,1.547h3.413l1.554-1.547l1.547,1.547h3.42l1.554-1.547l1.547,1.547h3.42l1.554-1.547l1.548,1.547h3.42
	l1.553-1.547l1.548,1.547h4.184l-0.332-1.233c-8.986-33.08-0.114-57.89-0.025-58.14L79,5.816z M73.3,22.438
	c-0.039,0.316-0.083,0.617-0.114,0.942c-0.688,6.233-1.025,14.805,0.114,24.848c0.58,5.095,1.528,10.573,3.025,16.322h-0.822
	l-2.363-2.361l-2.362,2.361h-1.796l-2.363-2.361l-2.362,2.361h-1.796l-2.363-2.361l-2.362,2.361h-1.803l-2.356-2.361l-2.362,2.361
	h-1.803l-2.362-2.361l-2.363,2.361h-1.713c-0.503-1.986-0.948-3.934-1.337-5.84c-0.089-0.438-0.172-0.87-0.255-1.306
	c-0.083-0.432-0.172-0.872-0.255-1.304c-0.178-0.981-0.343-1.95-0.496-2.906c-0.07-0.464-0.14-0.922-0.204-1.387
	c-0.021-0.133-0.045-0.261-0.057-0.394c-0.027-0.146-0.05-0.301-0.071-0.454c-2.102-14.953-0.975-26.873,0.434-34.483
	c0.083-0.448,0.166-0.88,0.248-1.299c0.096-0.452,0.185-0.894,0.274-1.307c0.668-3.056,1.318-5.133,1.649-6.101h1.936l2.21,2.209
	l2.21-2.209h2.102l2.209,2.209l2.21-2.209h2.102l2.21,2.209l2.209-2.209h2.102l2.209,2.209l2.203-2.209h2.102l2.21,2.209
	l2.209-2.209h0.892C75.542,10.038,74.167,15.145,73.3,22.438L73.3,22.438z M19.506,44.11"/>
<path fill="#5C7481" d="M49.451,21.292h16.85v-1.955H44.936v1.955h3.286H49.451z M49.451,21.292"/>
<path fill="#5C7481" d="M46.502,27.973h18.494v-1.961H43.636v1.961h2.191H46.502z M46.502,27.973"/>
<rect x="43.636" y="32.691" fill="#5C7481" width="21.359" height="1.954"/>
<path fill="#5C7481" d="M44.936,40.403v0.915h21.365v-1.953H44.936V40.403z M44.936,40.403"/>
<path fill="#F9F9F9" d="M17.559,45.652l0.018,0.036c0.008,0.954-0.218,1.673-0.679,2.158c-0.461,0.484-1.141,0.727-2.039,0.727
	c-0.898,0-1.615-0.275-2.152-0.825c-0.536-0.551-0.805-1.33-0.805-2.34v-2.593c0-1.006,0.259-1.785,0.778-2.34
	c0.519-0.555,1.213-0.832,2.083-0.832c0.922,0,1.619,0.247,2.089,0.739c0.471,0.493,0.714,1.223,0.73,2.188l-0.018,0.035h-1.633
	c0.024-0.57-0.054-0.981-0.232-1.232s-0.491-0.377-0.936-0.377c-0.381,0-0.673,0.149-0.876,0.447
	c-0.203,0.299-0.304,0.75-0.304,1.354v2.607c0,0.613,0.108,1.068,0.325,1.366c0.217,0.299,0.534,0.448,0.951,0.448
	c0.41,0,0.695-0.118,0.855-0.355c0.161-0.236,0.231-0.641,0.212-1.213H17.559z"/>
<path fill="#F9F9F9" d="M20.3,45.331v3.117h-1.699V39.77h3.016c0.866,0,1.55,0.256,2.051,0.768c0.5,0.513,0.751,1.184,0.751,2.013
	c0,0.834-0.251,1.506-0.754,2.016c-0.502,0.511-1.185,0.766-2.047,0.766H20.3z M20.3,43.978h1.317c0.362,0,0.638-0.134,0.829-0.4
	s0.286-0.605,0.286-1.016c0-0.414-0.094-0.757-0.283-1.03c-0.189-0.272-0.466-0.409-0.832-0.409H20.3V43.978z"/>
<path fill="#F9F9F9" d="M30.148,44.842h-2.945v3.606h-1.699V39.77h5.162v1.353h-3.463v2.367h2.945V44.842z"/>
<path fill="#5C7481" d="M53.273,49.681c0.159-0.004,0.286-0.138,0.281-0.297l-0.081-2.99c-0.004-0.159-0.137-0.284-0.297-0.282
	l-2.99,0.082c-0.16,0.004-0.286,0.138-0.282,0.297l0.081,2.99c0.004,0.159,0.137,0.285,0.296,0.281L53.273,49.681z M50.491,46.764
	l2.413-0.066l0.065,2.413l-2.412,0.066L50.491,46.764z M50.491,46.764"/>
<rect x="51.123" y="47.331" transform="matrix(-0.9996 0.0274 -0.0274 -0.9996 104.7524 94.4405)" fill="#5C7481" width="1.213" height="1.212"/>
<path fill="#5C7481" d="M61.468,45.889l-2.99,0.081c-0.159,0.005-0.285,0.138-0.281,0.296l0.081,2.99
	c0.004,0.161,0.137,0.286,0.296,0.281l2.99-0.08c0.159-0.004,0.285-0.137,0.28-0.297l-0.08-2.991
	C61.76,46.011,61.627,45.884,61.468,45.889L61.468,45.889z M61.26,48.887l-2.413,0.064l-0.065-2.412l2.413-0.063L61.26,48.887z
	 M61.26,48.887"/>
<rect x="59.414" y="47.106" transform="matrix(-0.9996 0.0273 -0.0273 -0.9996 121.3247 93.7678)" fill="#5C7481" width="1.214" height="1.214"/>
<path fill="#5C7481" d="M61.692,54.185l-2.99,0.081c-0.16,0.004-0.286,0.137-0.281,0.297l0.081,2.989
	c0.004,0.16,0.137,0.285,0.297,0.282l2.989-0.083c0.16-0.003,0.286-0.135,0.282-0.296l-0.082-2.989
	C61.984,54.307,61.852,54.182,61.692,54.185L61.692,54.185z M61.484,57.183l-2.413,0.065l-0.065-2.413l2.413-0.066L61.484,57.183z
	 M61.484,57.183"/>
<rect x="59.637" y="55.402" transform="matrix(-0.9996 0.0273 -0.0273 -0.9996 121.9982 110.3494)" fill="#5C7481" width="1.214" height="1.213"/>
<path fill="#5C7481" d="M51.918,54.651l-0.035-1.297l1.574-0.044c0.04-0.001,0.072-0.033,0.071-0.073l-0.038-1.37
	c-0.001-0.041-0.034-0.072-0.075-0.071l-1.574,0.042l-0.035-1.298c-0.001-0.039-0.034-0.072-0.073-0.07l-1.647,0.045
	c-0.04,0.001-0.071,0.034-0.07,0.073l0.037,1.371c0.001,0.04,0.034,0.072,0.075,0.071l1.574-0.043l0.034,1.227l-1.575,0.043
	c-0.04,0.001-0.071,0.033-0.07,0.073l0.037,1.371c0,0.039,0.034,0.07,0.074,0.069l1.646-0.044
	C51.888,54.725,51.919,54.691,51.918,54.651L51.918,54.651z M51.918,54.651"/>
<path fill="#5C7481" d="M54.333,51.232c-0.04,0.001-0.072,0.034-0.071,0.073l0.043,1.596c0.001,0.039,0.035,0.072,0.075,0.07
	l1.596-0.042c0.04-0.001,0.071-0.036,0.07-0.075l-0.043-1.596c-0.001-0.04-0.035-0.07-0.074-0.069L54.333,51.232z M54.333,51.232"/>
<path fill="#5C7481" d="M55.407,49.271l1.948-0.053c0.04,0,0.072-0.034,0.071-0.073l-0.053-1.948
	c-0.001-0.038-0.035-0.07-0.074-0.069l-1.948,0.053c-0.039,0.001-0.071,0.035-0.07,0.073l0.053,1.947
	C55.334,49.239,55.368,49.272,55.407,49.271L55.407,49.271z M55.407,49.271"/>
<path fill="#5C7481" d="M57.252,50.199l0.039,1.464c0.001,0.04,0.034,0.07,0.074,0.069l1.462-0.04
	c0.041-0.001,0.072-0.032,0.071-0.072l-0.04-1.464c-0.001-0.04-0.034-0.07-0.075-0.07l-1.462,0.039
	C57.283,50.127,57.25,50.16,57.252,50.199L57.252,50.199z M57.252,50.199"/>
<path fill="#5C7481" d="M52.739,55.331l-1.025,0.027c-0.04,0.001-0.071,0.034-0.07,0.074l0.026,0.952l-1.423,0.038
	c-0.04,0-0.071,0.035-0.07,0.075l0.041,1.494c0,0.041,0.034,0.072,0.074,0.07l1.495-0.04c0.04-0.001,0.072-0.034,0.071-0.073
	l-0.039-1.423l0.954-0.026c0.04,0,0.071-0.034,0.07-0.074L52.813,55.4C52.812,55.36,52.778,55.329,52.739,55.331L52.739,55.331z
	 M52.739,55.331"/>
<path fill="#5C7481" d="M57.833,54.167l-1.025,0.027c-0.04,0.002-0.071,0.034-0.07,0.074l0.026,0.953l-0.881,0.023l-0.026-0.953
	c-0.001-0.04-0.035-0.071-0.074-0.07l-1.025,0.027c-0.04,0.002-0.072,0.035-0.071,0.075l0.028,1.025
	c0.001,0.039,0.034,0.07,0.074,0.069l0.954-0.025l0.023,0.88l-1.422,0.038c-0.04,0.001-0.071,0.035-0.07,0.074l0.041,1.497
	c0,0.04,0.034,0.069,0.074,0.069l1.495-0.041c0.04,0,0.071-0.034,0.07-0.074l-0.039-1.422l0.953-0.025
	c0.04-0.001,0.072-0.034,0.071-0.074l-0.026-0.954l0.953-0.025c0.04-0.001,0.072-0.034,0.071-0.074l-0.028-1.025
	C57.906,54.196,57.873,54.166,57.833,54.167L57.833,54.167z M57.833,54.167"/>
<path fill="#5C7481" d="M54.994,50.371l-0.027-1.024c-0.002-0.041-0.035-0.073-0.075-0.072l-1.025,0.028
	c-0.039,0.001-0.071,0.035-0.07,0.075l0.028,1.024c0.001,0.039,0.034,0.071,0.074,0.071l1.025-0.029
	C54.964,50.444,54.995,50.41,54.994,50.371L54.994,50.371z M54.994,50.371"/>
<path fill="#5C7481" d="M55.322,47.153l-0.028-1.026c0-0.039-0.034-0.07-0.074-0.069l-1.025,0.027
	c-0.04,0.002-0.071,0.034-0.07,0.073l0.028,1.026c0.001,0.039,0.034,0.071,0.074,0.07l1.025-0.028
	C55.291,47.226,55.322,47.192,55.322,47.153L55.322,47.153z M55.322,47.153"/>
<path fill="#5C7481" d="M61.829,51.2c0.039-0.001,0.07-0.034,0.069-0.075l-0.027-1.023c-0.001-0.04-0.034-0.071-0.074-0.07
	l-1.025,0.028c-0.04,0.001-0.071,0.033-0.071,0.073l0.026,0.952l-0.953,0.027c-0.041,0-0.072,0.034-0.071,0.073l0.028,1.025
	c0,0.039,0.034,0.073,0.074,0.071l0.953-0.025l0.025,0.952c0.001,0.04,0.034,0.07,0.074,0.069l1.026-0.027
	c0.04-0.001,0.071-0.033,0.07-0.074l-0.028-1.024c-0.001-0.04-0.034-0.072-0.074-0.07l-0.953,0.024l-0.024-0.88L61.829,51.2z
	 M61.829,51.2"/>
<circle fill="#5C7481" cx="325.394" cy="42.367" r="20.25"/>
<path fill="#5C7481" d="M332.003,15.98h-6.609h-6.608c-1.161,0.889-18.883,12.529-18.883,29.166
	c0,15.303,7.899,23.842,25.491,23.842c17.594,0,25.49-8.539,25.49-23.842C350.884,28.51,333.165,16.869,332.003,15.98z"/>
<path fill="#5C7481" d="M350.563,40.436c-2.626-16.428-17.398-28.41-18.56-29.301l5.812-8.852c-2.764-2.859-2.961-1.209-6.219,0
	C328.372,3.48,328.186,0,325.394,0c-2.79,0-2.977,3.48-6.201,2.283c-3.26-1.209-3.455-2.859-6.22,0l5.813,8.852
	c-1.161,0.891-15.934,12.873-18.561,29.301c-2.27,14.207,7.577,22.568,25.169,22.568C342.988,63.004,352.833,54.643,350.563,40.436z
	"/>
<path fill="#F9F9F9" d="M325.394,14.438c-2.799,0-5.598-0.605-8.203-1.816l1.132-2.436c4.493,2.09,9.648,2.09,14.145,0.002
	c0.672-0.314,1.47-0.021,1.782,0.65s0.021,1.471-0.652,1.783C330.992,13.832,328.192,14.438,325.394,14.438z"/>
<path fill="#F9F9F9" d="M332.353,24.096c-0.179,0-0.359-0.043-0.525-0.139c-0.517-0.291-0.701-0.945-0.409-1.463
	c2.445-4.346-0.821-9.846-0.854-9.9c-0.218-0.359-0.206-0.813,0.031-1.16c0.235-0.348,0.652-0.523,1.066-0.455
	c0.282,0.049,6.908,1.273,8.927,9.873c0.136,0.578-0.223,1.156-0.799,1.293c-0.579,0.133-1.155-0.225-1.291-0.801
	c-0.982-4.188-3.2-6.281-4.918-7.311c0.875,2.406,1.612,6.133-0.29,9.516C333.092,23.898,332.728,24.096,332.353,24.096z"/>
<path fill="#F9F9F9" d="M318.684,43.361c0.936,0.422,1.798,0.729,2.583,0.918c0.785,0.191,1.46,0.289,2.023,0.289
	c0.498,0,0.924-0.123,1.277-0.367c0.356-0.242,0.531-0.58,0.531-1.012c0-0.105-0.011-0.213-0.036-0.322
	c-0.023-0.111-0.06-0.213-0.106-0.309c-0.048-0.096-0.124-0.217-0.229-0.365s-0.196-0.26-0.274-0.336
	c-0.075-0.078-0.382-0.373-0.917-0.891c-1.532-1.48-2.552-2.529-3.058-3.141c-0.394-0.479-0.696-1.01-0.912-1.6
	c-0.216-0.586-0.323-1.164-0.323-1.727c0-0.441,0.064-0.873,0.193-1.299c0.13-0.424,0.318-0.83,0.567-1.213
	c0.248-0.381,0.547-0.727,0.897-1.031c0.35-0.307,0.733-0.557,1.148-0.754c0.416-0.195,1.036-0.398,1.858-0.609
	c0.021-0.305,0.029-0.486,0.029-0.545l-0.016-0.932v-1.639c1.044,0.02,1.912,0.029,2.6,0.029c0.767,0,1.628-0.01,2.585-0.029
	c-0.048,1.063-0.072,1.684-0.072,1.867v1.234c0.947,0.133,1.88,0.328,2.799,0.59c0.065,1.545,0.158,3.148,0.272,4.809
	c-0.774-0.355-1.49-0.609-2.146-0.762c-0.654-0.154-1.197-0.229-1.629-0.229c-0.488,0-0.893,0.111-1.214,0.336
	c-0.319,0.225-0.479,0.516-0.479,0.869c0,0.307,0.092,0.594,0.279,0.859c0.188,0.27,0.453,0.566,0.797,0.893
	c1.244,1.166,2.161,2.102,2.75,2.799s1.001,1.361,1.241,1.988c0.238,0.627,0.357,1.248,0.357,1.857c0,0.508-0.063,0.984-0.192,1.43
	s-0.319,0.854-0.569,1.229c-0.247,0.371-0.533,0.707-0.859,1.004c-0.325,0.297-0.661,0.549-1.004,0.76
	c-0.345,0.211-0.854,0.455-1.521,0.732l-0.028,1.824c0,0.602,0.004,1.188,0.013,1.752c-1.043-0.02-1.871-0.031-2.482-0.031
	s-1.519,0.012-2.714,0.031c0.047-0.67,0.071-1.52,0.071-2.543v-0.588c-0.775-0.105-1.423-0.215-1.945-0.33
	c-0.521-0.115-1.16-0.299-1.917-0.545C318.845,45.912,318.768,44.262,318.684,43.361z"/>
<path fill="#5C7481" d="M304.941,83.077v4.122h-0.82v-9.953h2.946c0.87,0,1.545,0.267,2.023,0.8s0.718,1.237,0.718,2.112
	c0,0.884-0.239,1.592-0.718,2.123c-0.479,0.53-1.153,0.796-2.023,0.796H304.941z M304.941,82.359h2.126
	c0.638,0,1.116-0.209,1.436-0.625c0.319-0.418,0.479-0.938,0.479-1.563c0-0.634-0.159-1.158-0.479-1.576
	c-0.319-0.416-0.798-0.625-1.436-0.625h-2.126V82.359z"/>
<path fill="#5C7481" d="M314.176,80.541l-0.54-0.041c-0.383,0-0.699,0.129-0.95,0.387c-0.251,0.257-0.435,0.611-0.554,1.063v5.25
	h-0.82v-7.396h0.725l0.096,1.224c0.174-0.429,0.402-0.763,0.688-1.001c0.284-0.24,0.618-0.359,1.001-0.359
	c0.087,0,0.173,0.008,0.26,0.023c0.087,0.017,0.155,0.033,0.205,0.052L314.176,80.541z"/>
<path fill="#5C7481" d="M317.676,87.343c-0.798,0-1.449-0.3-1.955-0.899c-0.506-0.599-0.759-1.363-0.759-2.293v-1.23
	c0-0.935,0.254-1.71,0.762-2.328c0.509-0.617,1.121-0.926,1.836-0.926c0.775,0,1.377,0.276,1.805,0.828s0.643,1.293,0.643,2.224
	v0.811h-4.231v0.613c0,0.718,0.171,1.314,0.513,1.79s0.805,0.714,1.388,0.714c0.405,0,0.755-0.071,1.05-0.214
	c0.293-0.143,0.545-0.345,0.755-0.606l0.335,0.578c-0.223,0.286-0.512,0.514-0.865,0.685
	C318.598,87.258,318.173,87.343,317.676,87.343z M317.56,80.391c-0.516,0-0.938,0.234-1.268,0.704
	c-0.331,0.47-0.503,1.048-0.517,1.736h3.411v-0.314c0-0.61-0.144-1.118-0.431-1.521C318.469,80.592,318.07,80.391,317.56,80.391z
	 M319.235,78.319v0.13h-0.731l-0.909-1.135l-0.902,1.135h-0.711v-0.144l1.319-1.518h0.595L319.235,78.319z"/>
<path fill="#5C7481" d="M322.147,79.803l0.068,1.148c0.196-0.41,0.456-0.727,0.779-0.95s0.704-0.335,1.142-0.335
	c0.447,0,0.822,0.131,1.128,0.393c0.306,0.263,0.528,0.66,0.67,1.193c0.183-0.492,0.44-0.88,0.776-1.162
	c0.334-0.282,0.738-0.424,1.213-0.424c0.646,0,1.149,0.264,1.508,0.789c0.357,0.527,0.536,1.335,0.536,2.424v4.32h-0.827v-4.334
	c0-0.907-0.123-1.545-0.369-1.914s-0.598-0.554-1.053-0.554c-0.479,0-0.852,0.205-1.121,0.615s-0.434,0.925-0.492,1.545v0.191v4.45
	h-0.82v-4.327c0-0.889-0.127-1.522-0.379-1.9c-0.254-0.378-0.605-0.567-1.057-0.567c-0.434,0-0.78,0.131-1.043,0.393
	c-0.262,0.263-0.449,0.621-0.563,1.077v5.325h-0.82v-7.396H322.147z"/>
<path fill="#5C7481" d="M332.708,77.697h-0.827v-1.162h0.827V77.697z M332.708,87.199h-0.827v-7.396h0.827V87.199z"/>
<path fill="#5C7481" d="M334.308,82.961c0-0.957,0.246-1.745,0.738-2.365s1.152-0.93,1.982-0.93s1.491,0.309,1.986,0.926
	c0.494,0.618,0.741,1.407,0.741,2.369v1.087c0,0.971-0.246,1.763-0.738,2.376c-0.492,0.612-1.153,0.919-1.982,0.919
	c-0.834,0-1.497-0.307-1.989-0.919c-0.492-0.613-0.738-1.405-0.738-2.376V82.961z M335.135,84.056c0,0.74,0.164,1.356,0.492,1.85
	s0.798,0.74,1.408,0.74c0.597,0,1.062-0.248,1.395-0.743c0.333-0.496,0.499-1.111,0.499-1.847v-1.089
	c0-0.727-0.166-1.337-0.499-1.833c-0.333-0.495-0.8-0.743-1.401-0.743c-0.605,0-1.073,0.248-1.401,0.743
	c-0.328,0.496-0.492,1.106-0.492,1.833V84.056z"/>
<path fill="#5C7481" d="M344.829,85.437c0-0.339-0.11-0.631-0.331-0.876c-0.222-0.245-0.626-0.502-1.214-0.772
	c-0.752-0.31-1.302-0.626-1.651-0.946c-0.348-0.322-0.522-0.742-0.522-1.262c0-0.528,0.208-0.979,0.622-1.354
	s0.953-0.561,1.613-0.561c0.701,0,1.258,0.207,1.668,0.622s0.605,0.932,0.588,1.552l-0.014,0.041h-0.772
	c0-0.401-0.132-0.75-0.396-1.046s-0.622-0.444-1.073-0.444c-0.461,0-0.811,0.116-1.053,0.349s-0.362,0.504-0.362,0.813
	c0,0.328,0.096,0.592,0.287,0.789c0.191,0.199,0.602,0.448,1.23,0.749c0.738,0.296,1.29,0.618,1.654,0.968
	c0.364,0.348,0.547,0.789,0.547,1.322c0,0.588-0.211,1.062-0.632,1.422c-0.422,0.36-0.979,0.54-1.672,0.54
	c-0.762,0-1.357-0.215-1.787-0.645c-0.432-0.429-0.635-0.939-0.612-1.53l0.014-0.04h0.766c0.027,0.531,0.198,0.917,0.513,1.157
	s0.684,0.36,1.107,0.36c0.461,0,0.822-0.117,1.087-0.351S344.829,85.775,344.829,85.437z"/>
</svg>
